<svg xmlns="http://www.w3.org/2000/svg" viewBox="0 0 407.78 319.63" height="319.63" width="407.78"><defs><linearGradient x1="0" y1="0" x2="1" y2="0" gradientUnits="userSpaceOnUse" gradientTransform="translate(10 159.815) scale(387.77881)" spreadMethod="pad" id="a"><stop offset="0" stop-color="#e30a6e"/><stop offset=".79" stop-color="#452a82"/><stop offset="1" stop-color="#452a82"/></linearGradient></defs><path d="M153.18 28.22c-60.83 23.25-110 66-131.534 114.365-13.68 30.725-15.34 61.405-4.81 88.73 18.62 48.3 73.17 78.31 142.365 78.31 31.215 0 64.205-6.295 95.4-18.22 60.825-23.245 109.995-65.995 131.53-114.355 13.685-30.725 15.345-61.41 4.815-88.73C372.32 40.01 317.776 10 248.576 10c-31.22 0-64.205 6.3-95.395 18.22" fill="url(#a)"/><path d="M325.457 192.477c0 7.275-5.735 13.175-12.81 13.175s-12.81-5.9-12.81-13.175 5.735-13.175 12.81-13.175 12.81 5.9 12.81 13.175" fill="#f3ed0e"/><path d="M279.876 125.47c0-6.554-4.825-10.974-11.305-11.3-.035 0-.935-.12-2.18-.12l-87.035.006c-1.53 0-1.76.005-2.61.02-4.605.08-7.94 2.48-9.855 6.3a23.796 23.796 0 00-1.125 2.235l-18.885 42.655s-17.095-38.675-17.725-40.115c-.6-1.385-1.19-2.545-1.19-2.545-2.9-6.06-6.545-8.55-11.17-8.55-4.33 0-7.835 1.795-11.115 8.305 0 0-.46.955-1.115 2.355S86.6 165.24 86.6 165.24l-17.995-40.565-.845-1.65c-2.475-5.375-5.425-8.635-11.12-8.96-4.165-.245-8.1 2.185-10.12 5.725-1.015 1.775-2.375 5.32-.02 11.33.22.57.32.835.82 1.965 4.195 9.445 22.845 51.355 27.54 61.925.495 1.16 1.025 2.095 1.535 3.025 2.5 4.575 6.045 7.08 10.22 7.08 4.325 0 7.845-2.305 10.545-7.115.61-1.09 1.75-3.68 1.75-3.68l17.905-40.505S135.026 195 135.45 195.86c.43.87.835 1.62 1.58 2.89 2.27 3.88 5.105 6.365 9.835 6.365 4.895 0 7.245-2.505 9.865-6.43.335-.505.99-1.695 1.72-3.195.795-1.635 26.01-58.515 26.01-58.515l29.375.005.005 54.385.08 1.755c.18 6.66 5.21 12.02 11.61 12.02 6.62 0 11.15-5.215 11.405-12.045l.08-1.815v-54.25s27.405-.02 29.375-.015c1.265 0 1.565-.02 2.07-.055 6.37-.18 11.415-4.95 11.415-11.49m79.92 59.92l-.725-1.33-35.25-61.91-1.13-1.8c-2.43-3.835-5.51-6.28-9.885-6.375h-.005c-4.375.095-7.56 2.645-9.99 6.59l-1.175 1.84-35.02 61.25-1.115 1.95c-1.48 2.79-2.62 4.95-2.62 7.9 0 6.555 5.01 11.575 11.35 11.59 4.195.005 7.665-2.595 10.335-6.68l1.01-1.615 27.23-48.59 27.2 48.805.81 1.29c2.635 4.165 6.215 6.795 10.405 6.79 6.345-.015 11.365-4.985 11.365-11.54 0-2.95-1.32-5.41-2.79-8.165" fill="#fff"/></svg>