<svg id="Group_261" data-name="Group 261" xmlns="http://www.w3.org/2000/svg" xmlns:xlink="http://www.w3.org/1999/xlink" width="28.265" height="42.205" viewBox="0 0 28.265 42.205">
  <defs>
    <clipPath id="clip-path">
      <rect id="Rectangle_63" data-name="Rectangle 63" width="28.265" height="25.742" fill="#e5b75f"/>
    </clipPath>
  </defs>
  <g id="Group_251" data-name="Group 251">
    <g id="Group_250" data-name="Group 250" clip-path="url(#clip-path)">
      <path id="Path_91" data-name="Path 91" d="M26.341,4.35a2.879,2.879,0,0,0-3.229.142C23.2,2.3,23.15.82,23.141.618A.643.643,0,0,0,22.5,0H5.766a.644.644,0,0,0-.644.618c-.008.2-.059,1.685.031,3.874A2.872,2.872,0,0,0,1.924,4.35c-1.937,1.279-2.514,5-1.26,8.118,1.792,4.46,7.708,8.49,7.959,8.66.024.017.053.012.079.024a16.471,16.471,0,0,0,3.044,4.4.648.648,0,0,0,.456.188h3.861a.648.648,0,0,0,.456-.188,16.471,16.471,0,0,0,3.044-4.4c.026-.013.054-.008.079-.024.251-.17,6.168-4.2,7.959-8.66,1.254-3.121.677-6.838-1.26-8.118M1.859,11.987c-1.1-2.736-.5-5.721.775-6.562.9-.591,1.9.07,2.613.761A46.524,46.524,0,0,0,7.7,18.824C5.847,17.336,2.948,14.7,1.859,11.987M13.9,23.023a.645.645,0,0,1-.906-.09h0C8.248,17.134,7.75,5.5,7.7,3.232a.644.644,0,0,1,.629-.658H8.34a.643.643,0,0,1,.644.629c.138,6.073,1.532,14.669,5,18.914a.643.643,0,0,1-.091.9M26.406,11.987c-1.089,2.711-3.989,5.348-5.843,6.837A46.524,46.524,0,0,0,23.019,6.186c.709-.69,1.714-1.351,2.613-.761,1.273.84,1.874,3.825.775,6.562" transform="translate(0)" fill="#e5b75f"/>
    </g>
  </g>
  <rect id="Rectangle_64" data-name="Rectangle 64" width="27.587" height="14.238" transform="translate(0 27.967)" fill="#e5b564"/>
  <text id="_2011" data-name="2011" transform="translate(4.56 38.857)" font-size="10" font-weight="500"><tspan x="0" y="0">2011</tspan></text>
</svg>
