<?xml version="1.0" encoding="utf-8"?>
<!-- Generator: Adobe Illustrator 28.3.0, SVG Export Plug-In . SVG Version: 6.00 Build 0)  -->
<svg version="1.1" id="Vrstva_1" xmlns="http://www.w3.org/2000/svg" xmlns:xlink="http://www.w3.org/1999/xlink" x="0px" y="0px"
	 viewBox="0 0 27.59 43.55" style="enable-background:new 0 0 27.59 43.55;" xml:space="preserve">
<style type="text/css">
	.st0{clip-path:url(#SVGID_00000016791806537232696830000013070986560211162512_);}
	.st1{fill:#E4B75E;}
	.st2{fill:#E4B563;}
	.st3{enable-background:new    ;}
	.st4{fill:#010202;}
</style>
<g id="Group_888">
	<g id="Group_884" transform="translate(653 45.657)">
		<g>
			<defs>
				<rect id="SVGID_1_" x="-647" y="-45.66" width="16.39" height="28.2"/>
			</defs>
			<clipPath id="SVGID_00000067225909691656364850000018119367961123554213_">
				<use xlink:href="#SVGID_1_"  style="overflow:visible;"/>
			</clipPath>
			<g id="Group_883" style="clip-path:url(#SVGID_00000067225909691656364850000018119367961123554213_);">
				<path id="Path_137" class="st1" d="M-647-44.67c0.05-0.02,0.09-0.03,0.14-0.05l1.84-0.53c0.11-0.03,0.22-0.05,0.34-0.04
					c0.16,0.01,0.33,0.03,0.49,0.03c0.13,0.01,0.25,0.01,0.38,0c0.39-0.04,0.79-0.08,1.18-0.12c0.18-0.02,0.36-0.03,0.54-0.04
					c0.3-0.02,0.6-0.03,0.9-0.04c0.04,0,0.09-0.01,0.14-0.01l0.03-0.15c0.04-0.05,0.1-0.03,0.15-0.03h0.75h3.53
					c0.07,0,0.13,0,0.21,0.01l0.04,0.16c0.06,0.02,0.12,0.03,0.18,0.03c0.52,0.03,1.04,0.05,1.56,0.08
					c0.31,0.02,0.62,0.05,0.93,0.08c0.1,0.02,0.2,0.01,0.3-0.01c0.04-0.01,0.09-0.01,0.14-0.01l0.44-0.02
					c0.12-0.01,0.24,0.01,0.35,0.04l1.76,0.52c0.03,0.01,0.05,0.02,0.08,0.03c0.01,0.04,0.01,0.08,0.01,0.12
					c-0.02,1.05-0.05,2.11-0.07,3.16c-0.02,0.8-0.03,1.61-0.05,2.41c-0.02,0.72-0.04,1.44-0.06,2.16c-0.03,0.76-0.06,1.53-0.1,2.29
					c-0.02,0.48-0.05,0.96-0.08,1.44c-0.04,0.55-0.08,1.1-0.12,1.64c-0.04,0.46-0.07,0.93-0.12,1.39c-0.08,0.87-0.17,1.73-0.33,2.59
					c-0.08,0.47-0.16,0.95-0.25,1.42c-0.28,1.48-0.7,2.93-1.25,4.33c-0.2,0.49-0.43,0.96-0.69,1.42c-0.4,0.68-0.9,1.3-1.47,1.84
					c-0.03,0.03-0.07,0.06-0.1,0.09c-0.01,0.01-0.01,0.02-0.02,0.03c0.01,0.04,0.04,0.03,0.07,0.03c0.4,0.03,0.8,0.07,1.2,0.11
					c0.11,0.01,0.22,0.04,0.33,0.06c0.03,0.01,0.07,0.02,0.1,0.03c0.09,0.02,0.14,0.11,0.11,0.2c-0.01,0.04-0.04,0.07-0.07,0.09
					c-0.02,0.01-0.03,0.03-0.05,0.04v3.5c0.06,0.03,0.13,0.05,0.2,0.05c0.1,0.02,0.2,0.04,0.3,0.07c0.13,0.05,0.15,0.09,0.15,0.23
					c0,0.02,0,0.03,0,0.05c0.01,0.09-0.03,0.18-0.12,0.23c-0.01,0.01-0.02,0.01-0.02,0.02c-0.02,0.16-0.01,3.61,0.01,3.81
					c0.04,0.01,0.08,0.02,0.12,0.03c0.08,0.02,0.17,0.03,0.25,0.05c0.08,0.01,0.14,0.09,0.13,0.17c0,0.02,0,0.03,0,0.05
					c0.02,0.11-0.03,0.23-0.13,0.29c-0.01,0.01-0.01,0.02-0.03,0.04c0,0.03,0,0.08,0,0.12c0.02,1.34,0.04,2.68,0.05,4.03
					c0,0.04,0,0.08,0,0.12c-0.01,0.07,0.02,0.15,0.08,0.19c0.09,0.1,0.11,0.24,0.06,0.36c-0.02,0.04-0.06,0.08-0.11,0.1
					c-0.17,0.1-0.36,0.17-0.55,0.21c-0.57,0.13-1.15,0.24-1.73,0.33c-0.3,0.04-0.59,0.08-0.89,0.11c-0.21,0.03-0.43,0.06-0.64,0.08
					c-0.68,0.08-1.36,0.13-2.05,0.13c-0.43,0-0.86,0.01-1.29-0.01c-0.38-0.01-0.77-0.05-1.15-0.08c-0.26-0.02-0.52-0.06-0.78-0.08
					c-0.56-0.06-1.12-0.15-1.68-0.26c-0.28-0.06-0.55-0.12-0.83-0.19c-0.15-0.04-0.29-0.09-0.43-0.15
					c-0.06-0.02-0.11-0.05-0.17-0.08c-0.12-0.07-0.18-0.22-0.14-0.35c0.01-0.03,0.02-0.06,0.04-0.09c0.04-0.05,0.06-0.11,0.05-0.17
					c0-0.43,0-0.86,0-1.29c0-0.96,0-1.93-0.01-2.89c0-0.02,0-0.04,0-0.07c0.01-0.06-0.01-0.12-0.06-0.17
					c-0.06-0.07-0.08-0.17-0.05-0.26c0.01-0.09,0.07-0.16,0.16-0.19c0.1-0.03,0.21-0.05,0.31-0.08c0.04-0.01,0.08-0.01,0.12-0.02
					c0-0.05,0.01-0.1,0.01-0.14c0-1.2,0-2.4,0-3.6c0-0.07-0.02-0.14-0.06-0.2c-0.07-0.1-0.07-0.23-0.02-0.34
					c0.02-0.05,0.07-0.07,0.12-0.09c0.14-0.05,0.28-0.08,0.43-0.1l0.14-0.02c0.01-0.03,0.02-0.07,0.02-0.1c0-0.14,0-0.28,0-0.42
					c-0.01-0.91-0.02-1.83-0.02-2.74c0-0.06,0-0.12,0-0.19c-0.02-0.01-0.05-0.03-0.07-0.05c-0.02-0.02-0.04-0.05-0.05-0.08
					c-0.02-0.13,0.02-0.19,0.15-0.22c0.22-0.07,0.45-0.11,0.68-0.13c0.29-0.03,0.59-0.05,0.88-0.08l0.07-0.01
					c0-0.06-0.05-0.08-0.08-0.11c-0.35-0.32-0.67-0.67-0.96-1.05c-0.45-0.62-0.84-1.28-1.14-1.98c-0.24-0.54-0.43-1.11-0.62-1.67
					c-0.36-1.05-0.65-2.12-0.86-3.21c-0.07-0.36-0.12-0.73-0.18-1.09c-0.07-0.44-0.13-0.87-0.19-1.31
					c-0.04-0.31-0.08-0.63-0.11-0.94c-0.04-0.4-0.08-0.79-0.12-1.18c-0.04-0.43-0.08-0.86-0.11-1.28c-0.03-0.37-0.06-0.74-0.09-1.12
					c-0.03-0.37-0.05-0.75-0.08-1.12c-0.03-0.58-0.07-1.15-0.1-1.73c-0.03-0.64-0.06-1.29-0.08-1.94c-0.02-0.57-0.04-1.14-0.05-1.71
					c-0.01-0.34-0.01-0.68-0.02-1.02c-0.02-0.99-0.04-1.99-0.06-2.97c-0.01-0.22-0.01-0.45-0.01-0.68
					C-647-44.56-647-44.61-647-44.67 M-644.28-41h-0.03c0,0.04-0.01,0.08-0.01,0.11c0.02,0.92,0.04,1.85,0.07,2.77
					c0.03,0.94,0.07,1.89,0.1,2.83c0.03,0.82,0.08,1.64,0.11,2.46c0.01,0.24,0.02,0.49,0.04,0.73c0.03,0.45,0.05,0.9,0.09,1.36
					c0.04,0.54,0.07,1.07,0.11,1.61c0.06,0.67,0.12,1.34,0.19,2.01c0.06,0.65,0.15,1.3,0.25,1.95c0.14,0.89,0.32,1.77,0.54,2.64
					c0.16,0.68,0.39,1.35,0.67,1.99c0.18,0.39,0.38,0.77,0.61,1.14c0.02,0.02,0.02,0.07,0.08,0.05c0-0.03,0.01-0.06,0.01-0.1
					c0-0.2,0-0.41,0-0.61c0-0.27-0.02-0.53-0.02-0.8c-0.02-1.09-0.04-2.17-0.07-3.26c-0.02-0.82-0.06-1.63-0.09-2.44
					c-0.01-0.36-0.03-0.72-0.05-1.09c-0.03-0.47-0.06-0.94-0.09-1.41c-0.03-0.34-0.06-0.69-0.09-1.03
					c-0.02-0.26-0.05-0.53-0.08-0.79c-0.01-0.06,0-0.12,0.01-0.18c0.01-0.05,0.02-0.1,0.01-0.15c-0.03-0.24-0.06-0.48-0.09-0.73
					c-0.05-0.39-0.08-0.79-0.15-1.18c-0.13-0.73-0.26-1.46-0.42-2.18c-0.26-1.2-0.57-2.39-0.92-3.57c-0.19-0.68-0.44-1.35-0.73-1.99
					L-644.28-41 M-636-19.41l0.03,0.01c0.02-0.02,0.03-0.04,0.05-0.07c0.38-0.62,0.69-1.28,0.92-1.97c0.46-1.49,0.8-3.01,1.02-4.55
					c0.09-0.65,0.17-1.3,0.21-1.96s0.09-1.29,0.13-1.93c0.02-0.26,0.03-0.52,0.04-0.78c0.03-0.61,0.07-1.22,0.09-1.83
					c0.03-0.76,0.04-1.53,0.06-2.29s0.02-1.54,0.03-2.31c0-1.19,0-2.39,0-3.58c0-0.02,0-0.05,0-0.07c0-0.02,0-0.05-0.04-0.05
					c-0.02,0.03-0.03,0.07-0.05,0.1c-0.14,0.34-0.27,0.69-0.37,1.04c-0.39,1.28-0.7,2.58-0.98,3.88c-0.2,0.92-0.38,1.84-0.49,2.77
					c-0.06,0.53-0.13,1.06-0.16,1.59c0,0.08-0.02,0.17-0.03,0.25c-0.01,0.03-0.01,0.05-0.01,0.08c0.02,0.08,0.02,0.17,0,0.25
					c-0.04,0.44-0.08,0.89-0.12,1.34c-0.03,0.42-0.06,0.84-0.08,1.25c-0.03,0.63-0.06,1.26-0.09,1.88
					c-0.02,0.49-0.04,0.98-0.06,1.48c-0.02,0.87-0.05,1.73-0.07,2.6c-0.02,0.92-0.02,1.84-0.02,2.77c0,0.04,0,0.08,0.01,0.12"/>
			</g>
		</g>
	</g>
	<rect id="Rectangle_64-2" y="29.31" class="st2" width="27.59" height="14.24"/>
	<g class="st3">
		<path class="st4" d="M6.04,39.18c0,0.01,0.01,0.02,0.03,0.02h2.85c0.03,0,0.06,0.01,0.08,0.04s0.04,0.05,0.04,0.08v0.76
			c0,0.03-0.01,0.06-0.04,0.08S8.95,40.2,8.92,40.2h-4.3c-0.03,0-0.06-0.01-0.08-0.04c-0.02-0.02-0.04-0.05-0.04-0.08v-0.72
			c0-0.06,0.02-0.11,0.06-0.15c0.51-0.54,1.09-1.2,1.76-1.99l0.47-0.55c0.61-0.71,0.92-1.25,0.92-1.62c0-0.27-0.1-0.5-0.29-0.67
			c-0.19-0.17-0.44-0.26-0.75-0.26s-0.55,0.09-0.75,0.26c-0.19,0.17-0.28,0.4-0.28,0.69v0.26c0,0.03-0.01,0.06-0.04,0.08
			s-0.05,0.04-0.08,0.04H4.59c-0.03,0-0.06-0.01-0.08-0.04s-0.03-0.05-0.03-0.08V34.9c0.01-0.36,0.12-0.67,0.31-0.94
			s0.46-0.47,0.79-0.62c0.33-0.15,0.7-0.22,1.1-0.22c0.45,0,0.84,0.08,1.17,0.25c0.33,0.17,0.59,0.4,0.77,0.69
			c0.18,0.29,0.27,0.61,0.27,0.97c0,0.55-0.29,1.18-0.87,1.89c-0.32,0.4-0.85,1-1.58,1.8l-0.38,0.42
			C6.04,39.15,6.03,39.17,6.04,39.18z"/>
		<path class="st4" d="M10.67,39.71c-0.41-0.4-0.62-0.93-0.62-1.6v-2.82c0-0.67,0.21-1.2,0.62-1.58s0.96-0.58,1.67-0.58
			c0.7,0,1.26,0.2,1.67,0.58s0.62,0.92,0.62,1.58v2.82c0,0.67-0.21,1.21-0.62,1.6c-0.42,0.4-0.98,0.6-1.67,0.6
			C11.64,40.31,11.09,40.11,10.67,39.71z M13.17,39c0.21-0.2,0.31-0.48,0.31-0.83v-2.92c0-0.35-0.1-0.62-0.31-0.83
			c-0.21-0.2-0.48-0.3-0.83-0.3c-0.34,0-0.61,0.1-0.81,0.3c-0.2,0.2-0.31,0.48-0.31,0.83v2.92c0,0.35,0.1,0.62,0.31,0.83
			c0.2,0.2,0.48,0.3,0.81,0.3C12.69,39.3,12.96,39.2,13.17,39z"/>
		<path class="st4" d="M16.77,33.2h0.96c0.03,0,0.06,0.01,0.08,0.04s0.04,0.05,0.04,0.08v6.76c0,0.03-0.01,0.06-0.04,0.08
			s-0.05,0.04-0.08,0.04h-0.92c-0.03,0-0.06-0.01-0.08-0.04s-0.04-0.05-0.04-0.08V34.4c0-0.01-0.01-0.03-0.02-0.04
			s-0.03-0.01-0.04,0l-1,0.31c-0.01,0.01-0.03,0.01-0.05,0.01c-0.03,0-0.05-0.01-0.06-0.03c-0.02-0.02-0.02-0.05-0.02-0.08
			l-0.03-0.66c0-0.07,0.03-0.11,0.08-0.14l1.08-0.54C16.67,33.21,16.72,33.2,16.77,33.2z"/>
		<path class="st4" d="M23.32,35.42v3.05c0,0.36-0.09,0.68-0.27,0.95s-0.43,0.49-0.75,0.64c-0.32,0.15-0.7,0.22-1.12,0.22
			c-0.41,0-0.77-0.07-1.08-0.22s-0.56-0.35-0.74-0.62c-0.18-0.27-0.27-0.57-0.27-0.92V38.3c0-0.03,0.01-0.06,0.04-0.08
			c0.02-0.02,0.05-0.03,0.08-0.03h0.92c0.03,0,0.06,0.01,0.08,0.03c0.02,0.02,0.04,0.05,0.04,0.08v0.07c0,0.27,0.09,0.49,0.26,0.66
			s0.4,0.25,0.67,0.25c0.29,0,0.52-0.09,0.71-0.26c0.18-0.18,0.27-0.41,0.27-0.69v-1.1c0-0.02-0.01-0.03-0.02-0.04
			c-0.01-0.01-0.03,0-0.04,0.01c-0.29,0.28-0.68,0.42-1.17,0.42c-0.39,0-0.74-0.08-1.03-0.25c-0.3-0.17-0.53-0.41-0.7-0.72
			c-0.19-0.33-0.28-0.75-0.28-1.24c0-0.41,0.07-0.76,0.2-1.07c0.16-0.38,0.41-0.68,0.76-0.89c0.35-0.21,0.76-0.32,1.23-0.32
			c0.5,0,0.93,0.12,1.29,0.35c0.36,0.23,0.61,0.55,0.76,0.96C23.27,34.72,23.32,35.05,23.32,35.42z M22.16,35.36
			c0-0.25-0.04-0.48-0.13-0.67c-0.16-0.37-0.46-0.55-0.9-0.55c-0.43,0-0.73,0.18-0.9,0.54c-0.1,0.22-0.15,0.46-0.15,0.71
			c0,0.3,0.06,0.56,0.18,0.77c0.19,0.32,0.47,0.48,0.86,0.48c0.41,0,0.71-0.17,0.88-0.5C22.11,35.93,22.16,35.67,22.16,35.36z"/>
	</g>
</g>
</svg>
