<svg xmlns="http://www.w3.org/2000/svg" xmlns:xlink="http://www.w3.org/1999/xlink" width="27.587" height="43.549" viewBox="0 0 27.587 43.549">
  <defs>
    <clipPath id="clip-path">
      <rect id="Rectangle_258" data-name="Rectangle 258" width="16.386" height="28.2" fill="#e5b75f"/>
    </clipPath>
  </defs>
  <g id="Group_890" data-name="Group 890" transform="translate(-748 -45.657)">
    <g id="Group_886" data-name="Group 886" transform="translate(754 45.657)">
      <g id="Group_883" data-name="Group 883" clip-path="url(#clip-path)">
        <path id="Path_137" data-name="Path 137" d="M0,.991C.053.974.095.958.137.945L1.977.41A.938.938,0,0,1,2.312.37C2.476.382,2.639.4,2.8.4A2.9,2.9,0,0,0,3.176.4C3.57.36,3.963.316,4.357.278c.18-.017.361-.03.542-.04C5.2.222,5.5.21,5.8.2c.045,0,.089-.008.14-.013L5.969.037c.043-.046.1-.034.146-.035l.747,0h3.531c.067,0,.134,0,.206.005l.041.161a.467.467,0,0,0,.178.026c.52.027,1.04.049,1.559.081.31.019.62.052.93.081a.777.777,0,0,0,.3-.007.573.573,0,0,1,.135-.01l.441-.02a1.04,1.04,0,0,1,.352.04l1.756.52c.026.008.052.019.082.031a1.156,1.156,0,0,1,.009.12q-.035,1.579-.071,3.158c-.017.8-.03,1.608-.049,2.411-.017.719-.035,1.438-.06,2.156-.027.764-.061,1.527-.1,2.29q-.034.721-.081,1.441c-.036.548-.077,1.1-.12,1.643-.036.463-.073.925-.118,1.387-.083.868-.172,1.734-.325,2.593-.084.473-.155.949-.247,1.421a23.818,23.818,0,0,1-1.251,4.33,11.081,11.081,0,0,1-.69,1.418,8.872,8.872,0,0,1-1.465,1.841c-.032.032-.065.063-.1.095a.118.118,0,0,0-.016.029c.009.038.041.031.067.034.4.035.8.067,1.2.106a3.3,3.3,0,0,1,.333.062.523.523,0,0,1,.1.03.161.161,0,0,1,.042.292c-.016.014-.034.027-.046.037v3.5a.445.445,0,0,0,.2.047,2.133,2.133,0,0,1,.3.069c.129.046.152.092.149.231a.481.481,0,0,0,0,.051.221.221,0,0,1-.116.227.118.118,0,0,0-.023.024c-.02.16-.009,3.606.014,3.814.038.009.081.021.123.03.083.017.168.028.249.051a.157.157,0,0,1,.129.174c0,.017,0,.034,0,.051a.282.282,0,0,1-.128.293c-.009.006-.013.018-.029.04,0,.032,0,.077,0,.122q.027,2.012.054,4.025c0,.04,0,.079,0,.119a.223.223,0,0,0,.079.193.341.341,0,0,1,.058.364.235.235,0,0,1-.109.1,1.921,1.921,0,0,1-.551.214c-.574.126-1.151.245-1.732.331-.3.044-.595.075-.892.112-.213.026-.426.055-.64.078a18.022,18.022,0,0,1-2.048.135c-.43,0-.86.005-1.29-.01-.384-.013-.768-.047-1.151-.079-.259-.021-.517-.057-.776-.083a16.835,16.835,0,0,1-1.676-.261c-.277-.057-.553-.118-.827-.186a4.5,4.5,0,0,1-.434-.146.886.886,0,0,1-.167-.083A.306.306,0,0,1,2.013,41a.172.172,0,0,1,.044-.089.2.2,0,0,0,.053-.17c0-.43,0-.861,0-1.291q0-1.444-.011-2.887c0-.023,0-.045,0-.068a.209.209,0,0,0-.058-.17.265.265,0,0,1-.051-.255.235.235,0,0,1,.156-.187c.1-.032.207-.054.311-.078.037-.009.076-.011.122-.018,0-.052.009-.1.009-.14q0-1.8,0-3.6a.3.3,0,0,0-.063-.2.349.349,0,0,1-.019-.341c.015-.049.068-.072.118-.09a1.954,1.954,0,0,1,.429-.1l.142-.016a.453.453,0,0,0,.022-.1c0-.141,0-.283,0-.425Q3.2,29.406,3.2,28.03c0-.062,0-.124,0-.189a.383.383,0,0,1-.069-.052.194.194,0,0,1-.048-.084c-.021-.129.017-.186.146-.224a3.844,3.844,0,0,1,.681-.134c.292-.031.586-.051.879-.075l.072-.009c0-.058-.046-.08-.077-.108A7.726,7.726,0,0,1,3.826,26.1a10.206,10.206,0,0,1-1.141-1.982c-.242-.543-.429-1.107-.624-1.668A25.125,25.125,0,0,1,1.2,19.237c-.074-.36-.123-.725-.178-1.089q-.1-.654-.19-1.31c-.043-.314-.08-.629-.115-.944Q.655,15.3.6,14.713c-.041-.428-.079-.857-.115-1.285Q.434,12.87.394,12.311T.318,11.193c-.035-.576-.072-1.152-.1-1.729Q.171,8.5.137,7.529C.117,6.958.1,6.387.087,5.815.078,5.475.077,5.136.07,4.8Q.04,3.31.009,1.825C0,1.6,0,1.372,0,1.145c0-.05,0-.1.005-.154M2.719,4.659l-.031,0c0,.038-.007.076-.006.113.021.923.038,1.845.066,2.768.029.945.065,1.89.1,2.834.034.82.076,1.64.115,2.46q.017.365.04.729c.027.452.055.9.085,1.356.036.536.069,1.073.115,1.609.057.671.125,1.341.189,2.012.063.654.148,1.3.251,1.953.141.889.324,1.77.541,2.643a11.436,11.436,0,0,0,.673,1.991,8.9,8.9,0,0,0,.612,1.135c.015.023.02.07.078.052,0-.03.008-.063.008-.1,0-.2,0-.408,0-.611,0-.266-.015-.532-.021-.8-.024-1.087-.042-2.174-.073-3.26-.023-.815-.061-1.629-.094-2.444-.014-.362-.028-.724-.048-1.086q-.04-.7-.091-1.406c-.025-.344-.057-.688-.088-1.032-.024-.265-.052-.529-.075-.794a.5.5,0,0,1,.01-.184.341.341,0,0,0,.006-.149c-.03-.241-.059-.483-.088-.725-.048-.393-.08-.789-.148-1.179-.127-.73-.259-1.46-.416-2.184q-.39-1.8-.917-3.566a14.352,14.352,0,0,0-.726-1.991l-.072-.153m8.287,21.6.029.008c.016-.022.033-.043.046-.066A10.141,10.141,0,0,0,12,24.218a27.918,27.918,0,0,0,1.016-4.55c.092-.65.166-1.3.213-1.958s.09-1.287.132-1.931c.017-.26.028-.52.04-.78.029-.611.065-1.221.085-1.832.026-.764.044-1.528.058-2.292s.023-1.54.026-2.31c0-1.194,0-2.389,0-3.584a.549.549,0,0,0,0-.068c0-.02,0-.047-.039-.051-.015.031-.032.065-.047.1A10.4,10.4,0,0,0,13.112,6c-.391,1.278-.7,2.577-.983,3.882-.2.918-.38,1.84-.49,2.774-.062.528-.133,1.056-.162,1.587,0,.084-.023.168-.034.252a.219.219,0,0,0-.007.081.7.7,0,0,1,0,.253c-.04.445-.084.89-.119,1.336-.033.418-.059.836-.081,1.254q-.05.941-.091,1.883c-.022.492-.041.984-.056,1.476-.025.866-.051,1.732-.065,2.6-.015.923-.018,1.845-.025,2.768,0,.039,0,.077.006.116" transform="translate(0 0)" fill="#e5b75f"/>
      </g>
    </g>
    <rect id="Rectangle_64" data-name="Rectangle 64" width="27.587" height="14.238" transform="translate(748 74.967)" fill="#e5b564"/>
    <text id="_2022" data-name="2022" transform="translate(751 85.857)" font-size="10" font-family="Helvetica"><tspan x="0" y="0">2022</tspan></text>
  </g>
</svg>
