<svg xmlns="http://www.w3.org/2000/svg" width="26.91" height="41.751" viewBox="0 0 26.91 41.751">
  <g id="bar-stool" transform="translate(-91)">
    <path id="Path_120" data-name="Path 120" d="M93.446,9.785h9.786v14.76H97.116a1.223,1.223,0,0,0,0,2.446h6.116v7.888l-9.109,4.555a1.223,1.223,0,0,0,.547,2.317h19.571a1.223,1.223,0,0,0,.547-2.317l-9.109-4.555V26.992h6.116a1.223,1.223,0,1,0,0-2.446h-6.116V9.785h2.446v3.67a1.222,1.222,0,0,0,1.223,1.223h7.339a1.223,1.223,0,0,0,0-2.446h-6.116V9.785h4.893a2.45,2.45,0,0,0,2.446-2.446V2.446A2.45,2.45,0,0,0,115.464,0H93.446A2.45,2.45,0,0,0,91,2.446V7.339a2.45,2.45,0,0,0,2.446,2.446Z" fill="#c8141e"/>
  </g>
</svg>
