<svg xmlns="http://www.w3.org/2000/svg" xmlns:xlink="http://www.w3.org/1999/xlink" width="19.551" height="19" viewBox="0 0 19.551 19">
  <defs>
    <clipPath id="clip-path">
      <rect id="Rectangle_30" data-name="Rectangle 30" width="19.551" height="19" fill="#fff"/>
    </clipPath>
  </defs>
  <g id="Group_55" data-name="Group 55" clip-path="url(#clip-path)">
    <path id="Path_60" data-name="Path 60" d="M.826,0a.826.826,0,1,0,0,1.652H2.3a.573.573,0,0,1,.544.392l2.724,8.172a2.014,2.014,0,0,1,.044,1.125l-.224.9a2.135,2.135,0,0,0,2.052,2.63h9.913a.826.826,0,1,0,0-1.652H7.435a.446.446,0,0,1-.45-.576l.169-.675a.529.529,0,0,1,.513-.4h8.855A.826.826,0,0,0,17.306,11l2.2-6.609a.826.826,0,0,0-.784-1.087H5.415a.573.573,0,0,1-.544-.392L4.089.566A.826.826,0,0,0,3.3,0ZM6.609,15.7a1.652,1.652,0,1,0,1.652,1.652A1.652,1.652,0,0,0,6.609,15.7m9.913,0a1.652,1.652,0,1,0,1.652,1.652A1.652,1.652,0,0,0,16.522,15.7" transform="translate(0 -0.001)" fill="#fff"/>
  </g>
</svg>
