<svg xmlns="http://www.w3.org/2000/svg" xmlns:xlink="http://www.w3.org/1999/xlink" width="20" height="20" viewBox="0 0 20 20">
  <defs>
    <clipPath id="clip-path">
      <rect id="Rectangle_8" data-name="Rectangle 8" width="20" height="20" fill="#373737"/>
    </clipPath>
  </defs>
  <g id="Group_15" data-name="Group 15" clip-path="url(#clip-path)">
    <g id="Group_14" data-name="Group 14">
      <g id="Group_13" data-name="Group 13" clip-path="url(#clip-path)">
        <g id="Group_12" data-name="Group 12" opacity="0.753">
          <g id="Group_11" data-name="Group 11">
            <g id="Group_10" data-name="Group 10" clip-path="url(#clip-path)">
              <path id="Path_8" data-name="Path 8" d="M10,0c2.716,0,3.056.012,4.123.06A7.355,7.355,0,0,1,16.55.525a4.905,4.905,0,0,1,1.772,1.153A4.905,4.905,0,0,1,19.475,3.45a7.355,7.355,0,0,1,.465,2.427C19.988,6.944,20,7.284,20,10s-.012,3.056-.06,4.123a7.355,7.355,0,0,1-.465,2.427,5.106,5.106,0,0,1-2.925,2.925,7.355,7.355,0,0,1-2.427.465c-1.067.049-1.407.06-4.123.06s-3.056-.011-4.123-.06a7.355,7.355,0,0,1-2.427-.465,4.905,4.905,0,0,1-1.772-1.153A4.892,4.892,0,0,1,.525,16.55,7.355,7.355,0,0,1,.06,14.123C.011,13.056,0,12.716,0,10S.011,6.944.06,5.877A7.355,7.355,0,0,1,.525,3.45,4.892,4.892,0,0,1,1.678,1.678,4.905,4.905,0,0,1,3.45.525,7.355,7.355,0,0,1,5.877.06C6.944.012,7.284,0,10,0m0,1.8c-2.67,0-2.986.01-4.041.058A5.552,5.552,0,0,0,4.1,2.2a3.117,3.117,0,0,0-1.15.748A3.112,3.112,0,0,0,2.2,4.1,5.552,5.552,0,0,0,1.86,5.959C1.812,7.014,1.8,7.33,1.8,10s.01,2.986.058,4.041A5.552,5.552,0,0,0,2.2,15.9a3.31,3.31,0,0,0,1.9,1.9,5.552,5.552,0,0,0,1.857.344c1.054.048,1.371.058,4.041.058s2.987-.01,4.041-.058A5.552,5.552,0,0,0,15.9,17.8a3.318,3.318,0,0,0,1.9-1.9,5.578,5.578,0,0,0,.344-1.857c.048-1.055.058-1.371.058-4.041s-.01-2.986-.058-4.041A5.578,5.578,0,0,0,17.8,4.1a3.115,3.115,0,0,0-.749-1.15A3.113,3.113,0,0,0,15.9,2.2a5.552,5.552,0,0,0-1.857-.344C12.986,1.812,12.67,1.8,10,1.8m0,3.063A5.135,5.135,0,1,1,4.865,10,5.135,5.135,0,0,1,10,4.865m0,8.468A3.333,3.333,0,1,0,6.667,10,3.333,3.333,0,0,0,10,13.333m6.538-8.671a1.2,1.2,0,1,1-1.2-1.2,1.2,1.2,0,0,1,1.2,1.2" fill="#373737" fill-rule="evenodd"/>
            </g>
          </g>
        </g>
      </g>
    </g>
  </g>
</svg>
