<svg xmlns="http://www.w3.org/2000/svg" width="40" height="40" viewBox="0 0 40 40">
  <g id="faucet" transform="translate(-0.25 -0.25)">
    <path id="Path_112" data-name="Path 112" d="M.25,53.732a1.2,1.2,0,0,0,1.2,1.2h9.762V35.75H.25Z" transform="translate(0 -14.681)" fill="#c8141e"/>
    <path id="Path_113" data-name="Path 113" d="M47.75,54.931h9.762a1.2,1.2,0,0,0,1.2-1.2V35.75H47.75Z" transform="translate(-18.461 -14.681)" fill="#c8141e"/>
    <path id="Path_114" data-name="Path 114" d="M19.75,35.75H36.533v8.392H19.75Z" transform="translate(-7.892 -13.605)" fill="#c8141e"/>
    <path id="Path_115" data-name="Path 115" d="M19.75,51.5H36.533v8.392H19.75Z" transform="translate(-7.892 -19.642)" fill="#c8141e"/>
    <path id="Path_116" data-name="Path 116" d="M39.148,24.75H1.352a1.154,1.154,0,0,0-1.1,1.2v3.939h40V25.949A1.154,1.154,0,0,0,39.148,24.75Z" transform="translate(0 -9.248)" fill="#c8141e"/>
    <path id="Path_117" data-name="Path 117" d="M23.449,6.073a1.2,1.2,0,0,0,1.2-1.2V4.189a1.541,1.541,0,0,1,3.083,0V14.636h2.4V4.189a3.939,3.939,0,1,0-7.878,0v.685A1.2,1.2,0,0,0,23.449,6.073Z" transform="translate(-8.41)" fill="#c8141e"/>
    <path id="Path_118" data-name="Path 118" d="M14.449,17.648h.856V19.36h2.4V17.648h.856a1.2,1.2,0,1,0,0-2.4h-4.11a1.2,1.2,0,1,0,0,2.4Z" transform="translate(-4.937 -5.637)" fill="#c8141e"/>
    <path id="Path_119" data-name="Path 119" d="M42.449,17.648h.856V19.36h2.4V17.648h.856a1.2,1.2,0,1,0,0-2.4h-4.11a1.2,1.2,0,0,0,0,2.4Z" transform="translate(-15.571 -5.637)" fill="#c8141e"/>
  </g>
</svg>
