<svg id="magnifying-glass-search" xmlns="http://www.w3.org/2000/svg" width="13.308" height="13.346" viewBox="0 0 13.308 13.346">
  <path id="Path_103" data-name="Path 103" d="M13.63,11.468l-3.2-3.3c-.229-.237-.516-.332-.64-.211s-.411.026-.64-.211L9.109,7.7a4.786,4.786,0,1,0-.825.851l.02.021c.229.237.314.526.189.647s-.04.41.19.646l3.194,3.3a.6.6,0,0,0,.844.014l.9-.867A.6.6,0,0,0,13.63,11.468Zm-6-4.329a3.308,3.308,0,1,1,0-4.678A3.312,3.312,0,0,1,7.628,7.139Z" transform="translate(-0.49 -0.001)" fill="#fff"/>
</svg>
