<svg xmlns="http://www.w3.org/2000/svg" width="56.044" height="25.96" viewBox="0 0 56.044 25.96">
  <g id="seat" transform="translate(-3.988 -19.02)">
    <path id="Path_121" data-name="Path 121" d="M19.18,27.43l-.4-4.91a3.674,3.674,0,0,0-3.58-3.5H10.38a3.674,3.674,0,0,0-3.58,3.5l-.4,4.91C7.642,27.428,19.18,27.43,19.18,27.43Z" fill="#c8141e"/>
    <path id="Path_122" data-name="Path 122" d="M38.39,27.43l-.4-4.91a3.674,3.674,0,0,0-3.58-3.5H29.59a3.674,3.674,0,0,0-3.58,3.5l-.4,4.91c1.242,0,12.78,0,12.78,0Z" fill="#c8141e"/>
    <path id="Path_123" data-name="Path 123" d="M7.28,35.74H8.9c.011.7-.008,2.416,0,3.1,0,0,6.517.008,7.78,0,.008-.677-.006-2.4,0-3.1h1.63a3,3,0,0,0,3-3V31.43a2.006,2.006,0,0,0-1.97-2H6.24a2,2,0,0,0-1.96,2v1.31a3,3,0,0,0,3,3Z" fill="#c8141e"/>
    <path id="Path_124" data-name="Path 124" d="M26.48,35.74h1.63v3.1s6.517.008,7.78,0c.008-.677-.006-2.4,0-3.1h1.63a3,3,0,0,0,3-3V31.43a2.006,2.006,0,0,0-1.97-2H25.45a2.006,2.006,0,0,0-1.97,2v1.31a3,3,0,0,0,3,3Z" fill="#c8141e"/>
    <path id="Path_125" data-name="Path 125" d="M45.69,35.74h1.63v3.1s6.517.008,7.78,0c.008-.677-.006-2.4,0-3.1h1.62a3,3,0,0,0,3-3V31.43a2,2,0,0,0-1.96-2H44.66a2.006,2.006,0,0,0-1.97,2v1.31a3,3,0,0,0,3,3Z" fill="#c8141e"/>
    <path id="Path_126" data-name="Path 126" d="M57.6,27.43l-.4-4.91a3.674,3.674,0,0,0-3.58-3.5H48.8a3.674,3.674,0,0,0-3.58,3.5l-.4,4.91c1.242,0,12.78,0,12.78,0Z" fill="#c8141e"/>
    <path id="Path_127" data-name="Path 127" d="M59.82,40.84H4.18c-.327.648-.125,2.432-.18,3.14a1,1,0,0,0,1,1H59a1,1,0,0,0,1-1,12.224,12.224,0,0,0-.18-3.14Z" fill="#c8141e"/>
  </g>
</svg>
