<svg xmlns="http://www.w3.org/2000/svg" xmlns:xlink="http://www.w3.org/1999/xlink" width="82.701" height="18.675" viewBox="0 0 82.701 18.675">
  <defs>
    <clipPath id="clip-path">
      <rect id="Rectangle_66" data-name="Rectangle 66" width="82.701" height="18.675" transform="translate(0 0)" fill="#adadad"/>
    </clipPath>
  </defs>
  <g id="Group_267" data-name="Group 267" transform="translate(0 0)">
    <g id="Group_266" data-name="Group 266" transform="translate(0 0.001)" clip-path="url(#clip-path)">
      <path id="Path_92" data-name="Path 92" d="M89.18,14.364c0,.441-.312.625-1.25.625a13.875,13.875,0,0,1-3.879-.57l-.258,2.224a11.626,11.626,0,0,0,4.283.754c2.334,0,4.393-.882,4.393-3.144,0-4.08-5.477-3.015-5.477-4.191,0-.367.165-.625,1.25-.625a13.606,13.606,0,0,1,3.511.57l.257-2.224A10.38,10.38,0,0,0,88.1,7.029c-2.334,0-4.393.754-4.393,3.144,0,4.08,5.478,3.014,5.478,4.191m4.927,6.232h3.309V16.772a5.43,5.43,0,0,0,2.665.625c2.243,0,4.651-1.691,4.651-5.184s-2.206-5.184-4.467-5.184a4.383,4.383,0,0,0-2.849,1.085l-.184-.809H94.106Zm3.309-10.4a3.162,3.162,0,0,1,1.618-.478,2.184,2.184,0,0,1,2.206,2.5,2.183,2.183,0,0,1-2.206,2.5,3.165,3.165,0,0,1-1.618-.478Zm8.5,2.022c0,3.015,2.114,5.184,5.5,5.184s5.5-2.169,5.5-5.184-2.114-5.184-5.5-5.184-5.5,2.169-5.5,5.184m3.492,0c0-1.525.846-2.61,2-2.61s2,1.085,2,2.61-.845,2.61-2,2.61-2-1.085-2-2.61M126,7.066a4.053,4.053,0,0,0-3.952,1.691L121.8,7.305H118.68v9.816h3.308V11.57a3.483,3.483,0,0,1,3.75-1.452Zm5.536.239V4.952h-2.941l-.368,2.353-1.471.184V9.695h1.471V14.18c0,3.437,3.07,3.658,5.7,2.757l-.258-2.334c-1.507.257-2.132.036-2.132-.791V9.695h2.206V7.305Z" transform="translate(-51.222 -3.031)" fill="#adadad"/>
      <path id="Path_93" data-name="Path 93" d="M6.961.244C8.8.1,10.8.026,12.415,0V2.4c-.767.028-1.623.079-2.426.164-2.826.3-3.353.915-3.695,3.629a26.843,26.843,0,0,0,0,6.294c.342,2.714.869,3.327,3.695,3.629.8.086,1.66.138,2.426.165v2.4c-1.618-.026-3.612-.1-5.454-.245C1.892,18.025.946,17.2.331,13.561a27.092,27.092,0,0,1,0-8.449C.946,1.473,1.892.65,6.961.244" transform="translate(0 0)" fill="#adadad"/>
      <path id="Path_94" data-name="Path 94" d="M51.562,9.337a26.786,26.786,0,0,1-.331,4.224c-.615,3.639-1.56,4.464-6.63,4.869-1.842.147-3.835.219-5.453.245v-2.4c.767-.028,1.623-.079,2.425-.165,2.826-.3,3.354-.915,3.695-3.629a26.787,26.787,0,0,0,0-6.294c-.341-2.715-.869-3.328-3.695-3.63-.8-.085-1.659-.137-2.425-.164V0c1.617.026,3.611.1,5.453.244,5.069.406,6.015,1.229,6.63,4.869a26.786,26.786,0,0,1,.331,4.224" transform="translate(-23.957 0)" fill="#adadad"/>
    </g>
  </g>
</svg>
