<svg xmlns="http://www.w3.org/2000/svg" xmlns:xlink="http://www.w3.org/1999/xlink" width="20" height="20" viewBox="0 0 20 20">
  <defs>
    <clipPath id="clip-path">
      <rect id="Rectangle_29" data-name="Rectangle 29" width="20" height="20" fill="#5d5d5d"/>
    </clipPath>
  </defs>
  <g id="Group_50" data-name="Group 50" clip-path="url(#clip-path)">
    <path id="Path_58" data-name="Path 58" d="M16.869,0H3.131A3.131,3.131,0,0,0,0,3.131V16.869A3.131,3.131,0,0,0,3.131,20H16.869A3.131,3.131,0,0,0,20,16.869V3.131A3.131,3.131,0,0,0,16.869,0M12.155,15.366l-.208-.3-2.685-3.9-3.614,4.2H4.756l4.108-4.781L5.522,5.729,4.768,4.634H7.857l.208.3,2.514,3.652,2.639-3.071.763-.883h.891l-3.9,4.532,3.514,5.105.753,1.095Z" fill="#5d5d5d"/>
    <path id="Path_59" data-name="Path 59" d="M221.885,194.359l-2.618-3.8h-1.393l3.237,4.7.4.577,2.79,4.054h1.393l-3.409-4.953Z" transform="translate(-211.777 -185.222)" fill="#5d5d5d"/>
  </g>
</svg>
