<svg xmlns="http://www.w3.org/2000/svg" xmlns:xlink="http://www.w3.org/1999/xlink" width="27.312" height="26.593" viewBox="0 0 27.312 26.593">
  <defs>
    <clipPath id="clip-path">
      <rect id="Rectangle_15" data-name="Rectangle 15" width="27.312" height="26.593" fill="#c1141c"/>
    </clipPath>
  </defs>
  <g id="Group_22" data-name="Group 22" clip-path="url(#clip-path)">
    <path id="Path_15" data-name="Path 15" d="M14.232,103.139l-.008.005s0,.007,0,.011Z" transform="translate(-10.875 -78.862)" fill="#c1141c"/>
    <path id="Path_16" data-name="Path 16" d="M.076,109.632a.654.654,0,0,0,.053.7c.055.073.11.116.2.063a.106.106,0,0,0,.024-.166,2.216,2.216,0,0,1-.273-.6" transform="translate(0 -83.826)" fill="#c1141c"/>
    <path id="Path_17" data-name="Path 17" d="M101.98,15.229c.072.044.055.233.186.143a.358.358,0,0,0,.1-.256.335.335,0,0,0-.412-.281c-.076.019-.09.078-.079.177a1.027,1.027,0,0,0,.208.218" transform="translate(-77.814 -11.336)" fill="#c1141c"/>
    <path id="Path_18" data-name="Path 18" d="M96.417,11.026l-.016.007h0s0,.005,0,.008h.017l0-.017" transform="translate(-73.71 -8.431)" fill="#c1141c"/>
    <path id="Path_19" data-name="Path 19" d="M96.523,9.113c-.209.19-.213.2-.156.45l.268-.124c-.137-.064-.053-.222-.112-.326" transform="translate(-73.66 -6.968)" fill="#c1141c"/>
    <path id="Path_20" data-name="Path 20" d="M13.66,96.371c.028.017.091,0,.126-.027a.1.1,0,0,0,.033-.155.763.763,0,0,0-.133-.108c-.013.042-.02.087-.035.129-.021.057-.056.121.009.161" transform="translate(-10.415 -73.465)" fill="#c1141c"/>
    <path id="Path_21" data-name="Path 21" d="M13.858,96.055v0l-.011-.006.011.008" transform="translate(-10.588 -73.439)" fill="#c1141c"/>
    <path id="Path_22" data-name="Path 22" d="M9.272,107.888a.118.118,0,0,0-.117.113.068.068,0,0,0,.1.05.184.184,0,0,0,.093-.089c.017-.052-.028-.081-.078-.074" transform="translate(-7 -82.492)" fill="#c1141c"/>
    <path id="Path_23" data-name="Path 23" d="M99.57,11.572c-.043-.066-.077-.185-.2-.111-.033.021-.048.072-.081.125a1.034,1.034,0,0,0,.219.085.07.07,0,0,0,.061-.1" transform="translate(-75.919 -8.746)" fill="#c1141c"/>
    <path id="Path_24" data-name="Path 24" d="M13.864,96.056l0,0h-.011l.009,0" transform="translate(-10.593 -73.442)" fill="#c1141c"/>
    <path id="Path_25" data-name="Path 25" d="M13.9,95.265c.187.026.3-.033.266-.243-.17-.013-.208.128-.266.243" transform="translate(-10.63 -72.655)" fill="#c1141c"/>
    <path id="Path_26" data-name="Path 26" d="M15.033,94.973h.015l-.007,0,.008,0c0-.006,0-.011.007-.016l-.023.008s0,.005,0,.008" transform="translate(-11.494 -72.606)" fill="#c1141c"/>
    <path id="Path_27" data-name="Path 27" d="M13.864,91.588a.088.088,0,0,0-.056-.062c-.094-.017-.141.035-.148.125a.254.254,0,0,0,.015.078.4.4,0,0,0,.081-.018c.056-.022.114-.051.109-.123" transform="translate(-10.444 -69.98)" fill="#c1141c"/>
    <path id="Path_28" data-name="Path 28" d="M97.709,10.728a.089.089,0,0,0,.062-.053.126.126,0,0,0-.1-.14.363.363,0,0,0-.087-.012.284.284,0,0,0-.023.118.113.113,0,0,0,.143.088" transform="translate(-74.599 -8.045)" fill="#c1141c"/>
    <path id="Path_29" data-name="Path 29" d="M97.622,10.475l0-.013h0l-.019.009.008,0h.006" transform="translate(-74.633 -7.999)" fill="#c1141c"/>
    <path id="Path_30" data-name="Path 30" d="M14.233,103.137l-.01.017.022-.005-.012-.012" transform="translate(-10.875 -78.86)" fill="#c1141c"/>
    <path id="Path_31" data-name="Path 31" d="M14.372,103.157c.039.058.082.092.149.043a.05.05,0,0,0,.012-.043c-.019-.079-.072-.094-.144-.072-.023.007-.047.012-.07.017a.318.318,0,0,1,.053.055" transform="translate(-10.949 -78.813)" fill="#c1141c"/>
    <path id="Path_32" data-name="Path 32" d="M13.686,92.406l.011,0h0l0-.01h-.008s0,0,0,0" transform="translate(-10.464 -70.65)" fill="#c1141c"/>
    <path id="Path_33" data-name="Path 33" d="M12.77,92.342a.071.071,0,0,0,.058.108c.089.012.156-.017.148-.125-.072-.024-.15-.061-.206.017" transform="translate(-9.755 -70.57)" fill="#c1141c"/>
    <path id="Path_34" data-name="Path 34" d="M52.867,77.806a.082.082,0,0,0-.064.108.1.1,0,0,0,.063.06.065.065,0,0,0,.085-.074.091.091,0,0,0-.084-.094" transform="translate(-40.371 -59.492)" fill="#c1141c"/>
    <path id="Path_35" data-name="Path 35" d="M30.9,24.58a.142.142,0,0,1-.121-.133c0-.125.089-.083.166-.093.214-.026.157-.129.064-.252-.2-.267-.2-.27.058-.517-.278-.144-.592-.236-.755-.535-.277-.041-.356-.3-.507-.478-.106-.121.1-.2.112-.332a.644.644,0,0,0-.09-.371c-.079-.142-.173-.273-.1-.451.041-.1-.04-.181-.091-.264a3.947,3.947,0,0,0-.823-.962c-.193.043-.191.289-.409.294a2.133,2.133,0,0,0-.192-.493.439.439,0,0,1-.014-.6.435.435,0,0,0-.032-.506c-.3-.426-.332-.982-.7-1.373a.231.231,0,0,1-.059-.177c.064-.277-.11-.464-.242-.661-.431-.644-.978-1.2-1.361-1.884a1.521,1.521,0,0,0-.3-.315,8.889,8.889,0,0,1-.928-.926c-.055-.071-.136-.123-.1-.25.1-.308.08-.4-.138-.476a.718.718,0,0,1-.481-.558,1.408,1.408,0,0,0-.133-.337,4.455,4.455,0,0,0,.512-.794c.079-.162.3-.242.326-.463a.069.069,0,0,1,.106-.055c.255.143.3-.1.382-.224.222-.358.489-.683.724-1.028a7.2,7.2,0,0,0,.894-1.195,1.676,1.676,0,0,1,.428-.656,1.848,1.848,0,0,0,.512-.686,11.842,11.842,0,0,1,.737-1.316,2.667,2.667,0,0,0,.352-1c.016-.076.029-.195-.012-.232-.285-.257.032-.639-.2-.9.13-.223-.056-.263-.189-.352-.175-.116-.447-.132-.468-.419a.6.6,0,0,0-.6.356c-.041-.05-.075-.072-.078-.1-.033-.25.182-.481.056-.746-.025-.052.055-.11.132-.1s.166.092.193-.036-.1-.1-.157-.093c-.248.047-.379-.125-.54-.257-.118-.1-.035-.256-.14-.351-.172.1-.212.311-.4.42a1.141,1.141,0,0,0-.15-.993c-.1-.236-.311-.426-.288-.714-.177.061-.176.344-.411.228-.266-.131-.387.042-.484.244-.056.116-.084.247-.146.358-.1.173-.141.3.068.447.234.161.078.382.012.572-.058.168-.162.292-.367.2-.126-.056-.183.023-.23.109-.231.426-.477.846-.68,1.285a.949.949,0,0,1-.432.5.984.984,0,0,0-.426.386c-.452.769-.955,1.513-1.353,2.31a8.932,8.932,0,0,1-1.235,1.788q-.3-.287-.6-.572a7.8,7.8,0,0,0-1.513-1.26c-.158-.088-.225-.317-.444-.351a.069.069,0,0,1-.049-.109c.157-.246-.081-.308-.2-.394-.344-.242-.655-.526-.986-.78A7.2,7.2,0,0,0,15.237,4a1.673,1.673,0,0,1-.631-.464,1.85,1.85,0,0,0-.657-.55,11.866,11.866,0,0,1-1.272-.809A2.667,2.667,0,0,0,11.7,1.77c-.075-.02-.193-.04-.232,0-.272.27-.636-.068-.909.15-.215-.142-.266.041-.362.169-.125.168-.157.439-.444.444a.6.6,0,0,0,.322.618c-.052.038-.076.071-.1.073-.252.019-.47-.209-.741-.1-.053.022-.107-.061-.092-.137s.1-.161-.026-.2-.109.091-.1.152c.033.251-.146.371-.287.525-.1.112-.257.02-.358.121.086.177.3.229.4.423a1.141,1.141,0,0,0-1,.095c-.242.092-.443.287-.729.248.051.18.334.195.205.423-.146.258.02.388.216.5.113.063.242.1.349.166.168.108.294.158.45-.044.173-.224.385-.056.571.02.164.067.282.178.179.377-.064.123.012.184.1.236.413.255.818.523,1.245.75a.95.95,0,0,1,.475.459.982.982,0,0,0,.362.446c.743.494,1.458,1.038,2.231,1.48a12.775,12.775,0,0,1,2.6,2.206,10.121,10.121,0,0,0,.721.785c.019.016.036.032.055.048a1.6,1.6,0,0,1-.529.544,1.647,1.647,0,0,0-.577.644,2.5,2.5,0,0,1-.888.948,1.175,1.175,0,0,0-.56.589,1.579,1.579,0,0,1-.57.762,1.288,1.288,0,0,0-.554.72,2.568,2.568,0,0,1-.681,1.2,17.538,17.538,0,0,1-1.619,1.99,3.293,3.293,0,0,0-.392.5q-.464.623-.947,1.231a3.861,3.861,0,0,0-.777,1.022c.084-.028.169-.054.253-.084a.213.213,0,0,1,.261.069c.085.121,0,.221-.089.29-.2.16-.381.344-.571.515-.134.121-.143.3-.308.414a4.815,4.815,0,0,1-1.057.656.64.64,0,0,0-.318,1.044.43.43,0,0,0,.123-.3.142.142,0,0,1,.126-.129c.125-.008.088.085.1.161.038.213.138.15.255.05.255-.219.258-.215.519.029a1.523,1.523,0,0,1,.492-.784c.025-.278.284-.372.449-.533.115-.113.209.091.338.093a.641.641,0,0,0,.366-.11c.137-.087.263-.188.445-.129.107.035.178-.05.258-.105a3.94,3.94,0,0,0,.914-.875c-.054-.19-.3-.175-.317-.392a2.14,2.14,0,0,0,.482-.219.439.439,0,0,1,.6-.048.435.435,0,0,0,.5-.06c.409-.318.962-.386,1.332-.774a.231.231,0,0,1,.173-.069c.28.048.457-.136.647-.279.619-.466,1.147-1.043,1.805-1.463a1.527,1.527,0,0,0,.3-.317,8.875,8.875,0,0,1,.873-.978c.068-.059.115-.143.245-.11.313.079.4.057.467-.165a.718.718,0,0,1,.531-.511,1.071,1.071,0,0,0,.713-.608.762.762,0,0,1,.278-.329,2.15,2.15,0,0,0,.545-.545,2.489,2.489,0,0,1,.311.439,1.175,1.175,0,0,0,.556.592,1.58,1.58,0,0,1,.729.612,1.288,1.288,0,0,0,.688.593,2.568,2.568,0,0,1,1.161.747,17.55,17.55,0,0,1,1.9,1.727,3.267,3.267,0,0,0,.473.419q.6.5,1.177,1.014a3.853,3.853,0,0,0,.977.833c-.023-.086-.044-.172-.069-.257a.213.213,0,0,1,.083-.257c.125-.078.221.014.285.1.149.21.322.4.483.6.113.141.292.16.4.33a4.809,4.809,0,0,1,.6,1.092.64.64,0,0,0,1.025.375.43.43,0,0,0-.294-.14m-21.3-2.5a.167.167,0,0,1-.128.035c-.076-.017-.081-.092-.079-.155.013-.3.2-.434.649-.436a1.589,1.589,0,0,1-.442.557m18.448-.062c-.3-.029-.423-.22-.4-.672a1.592,1.592,0,0,1,.531.472.166.166,0,0,1,.028.13c-.021.075-.1.076-.159.07" transform="translate(-5.133)" fill="#c1141c"/>
    <path id="Path_36" data-name="Path 36" d="M106.942,97.894l0,.008.011,0Z" transform="translate(-81.77 -74.851)" fill="#c1141c"/>
    <path id="Path_37" data-name="Path 37" d="M113.426,111.11a.106.106,0,0,0-.164-.033,2.214,2.214,0,0,1-.612.239.655.655,0,0,0,.7-.014c.076-.051.122-.1.074-.191" transform="translate(-86.133 -84.911)" fill="#c1141c"/>
    <path id="Path_38" data-name="Path 38" d="M23.842,4.067a1.033,1.033,0,0,0,.229-.2c.048-.07.236-.042.153-.178a.357.357,0,0,0-.25-.112.335.335,0,0,0-.3.4c.015.076.073.095.172.089" transform="translate(-18.095 -2.739)" fill="#c1141c"/>
    <path id="Path_39" data-name="Path 39" d="M19.541,10.686l.006.016h.009c0-.006,0-.011,0-.017l-.017,0" transform="translate(-14.941 -8.168)" fill="#c1141c"/>
    <path id="Path_40" data-name="Path 40" d="M17.669,9.622c.178.219.185.224.441.181L18,9.528c-.072.133-.225.04-.332.094" transform="translate(-13.51 -7.285)" fill="#c1141c"/>
    <path id="Path_41" data-name="Path 41" d="M100.161,97.431c.018-.027,0-.091-.02-.127a.1.1,0,0,0-.153-.041.76.76,0,0,0-.115.127c.042.015.086.024.126.042.056.024.118.063.161,0" transform="translate(-76.364 -74.351)" fill="#c1141c"/>
    <path id="Path_42" data-name="Path 42" d="M99.845,97.869h0l-.007.011.008-.01" transform="translate(-76.337 -74.831)" fill="#c1141c"/>
    <path id="Path_43" data-name="Path 43" d="M111.507,102.433c-.051-.02-.083.023-.078.074a.118.118,0,0,0,.107.123.068.068,0,0,0,.056-.1.187.187,0,0,0-.084-.1" transform="translate(-85.2 -78.318)" fill="#c1141c"/>
    <path id="Path_44" data-name="Path 44" d="M20.285,7a1.039,1.039,0,0,0,.1-.214.07.07,0,0,0-.1-.067c-.069.04-.189.067-.121.192.019.035.069.052.121.088" transform="translate(-15.403 -5.135)" fill="#c1141c"/>
    <path id="Path_45" data-name="Path 45" d="M98.836,96.6c0-.005,0-.01,0-.015l0,.007,0-.008-.016-.008.006.024h.008" transform="translate(-75.56 -73.842)" fill="#c1141c"/>
    <path id="Path_46" data-name="Path 46" d="M99.847,97.862l0,0,0,.011.005-.009" transform="translate(-76.34 -74.825)" fill="#c1141c"/>
    <path id="Path_47" data-name="Path 47" d="M99.1,96.947c.037-.185-.016-.3-.227-.28-.022.169.116.214.227.28" transform="translate(-75.6 -73.912)" fill="#c1141c"/>
    <path id="Path_48" data-name="Path 48" d="M95.406,97a.089.089,0,0,0-.065.053c-.022.093.027.143.116.155a.258.258,0,0,0,.079-.01.426.426,0,0,0-.013-.082c-.019-.057-.045-.117-.117-.116" transform="translate(-72.896 -74.167)" fill="#c1141c"/>
    <path id="Path_49" data-name="Path 49" d="M96.2,97.828l-.01,0v.008l0-.005,0,.005h0l0-.011Z" transform="translate(-73.547 -74.801)" fill="#c1141c"/>
    <path id="Path_50" data-name="Path 50" d="M19.317,8.788a.089.089,0,0,0-.05-.065.126.126,0,0,0-.145.087A.355.355,0,0,0,19.1,8.9a.279.279,0,0,0,.117.029.113.113,0,0,0,.1-.138" transform="translate(-14.608 -6.668)" fill="#c1141c"/>
    <path id="Path_51" data-name="Path 51" d="M19.059,9.45l-.013,0h0l.008.02a.093.093,0,0,0,.005-.008V9.45" transform="translate(-14.562 -7.221)" fill="#c1141c"/>
    <path id="Path_52" data-name="Path 52" d="M107.038,96.959a.049.049,0,0,0-.042-.015c-.081.015-.1.067-.08.14.006.024.009.048.013.072a.3.3,0,0,1,.058-.05c.06-.036.1-.077.051-.146" transform="translate(-81.745 -74.125)" fill="#c1141c"/>
    <path id="Path_53" data-name="Path 53" d="M106.939,97.854l.016.011,0-.023-.012.012" transform="translate(-81.767 -74.812)" fill="#c1141c"/>
    <path id="Path_54" data-name="Path 54" d="M96.09,97.876c-.028.071-.07.146.005.207a.071.071,0,0,0,.111-.052c.016-.088-.008-.157-.116-.155" transform="translate(-73.443 -74.837)" fill="#c1141c"/>
    <path id="Path_55" data-name="Path 55" d="M83.807,57.463c.015.053.051.084.1.069a.1.1,0,0,0,.063-.059.064.064,0,0,0-.069-.089.091.091,0,0,0-.1.079" transform="translate(-64.08 -43.877)" fill="#c1141c"/>
  </g>
</svg>
