<svg xmlns="http://www.w3.org/2000/svg" xmlns:xlink="http://www.w3.org/1999/xlink" width="37.978" height="37.973" viewBox="0 0 37.978 37.973">
  <defs>
    <clipPath id="clip-path">
      <rect id="Rectangle_50" data-name="Rectangle 50" width="27.129" height="27.104" fill="#fff"/>
    </clipPath>
  </defs>
  <g id="Group_156" data-name="Group 156" transform="matrix(0.799, 0.602, -0.602, 0.799, 16.312, 0)">
    <g id="Group_155" data-name="Group 155" clip-path="url(#clip-path)">
      <path id="Path_87" data-name="Path 87" d="M172.116,282.43l.059.083c-.059.055-.032.3.025.29a5.188,5.188,0,0,1,.5-.813l-.139.023c-.11.243-.326.206-.448.417" transform="translate(-163.647 -268.115)" fill="#fff"/>
      <path id="Path_88" data-name="Path 88" d="M237.565,266.2l-.265.038a.376.376,0,0,0,.268.2,5.1,5.1,0,0,1,1.835.363,3.927,3.927,0,0,0-1.838-.6" transform="translate(-225.624 -253.098)" fill="#fff"/>
      <path id="Path_89" data-name="Path 89" d="M16.854.49l-2.722,2.7L15.17,4.232,14.133,5.269,13.095,4.232.494,16.839a1.688,1.688,0,0,0,0,2.386L7.881,26.61a1.687,1.687,0,0,0,2.387,0l12.6-12.6-1.038-1.038,1.038-1.038,1.038,1.038,2.726-2.717a1.688,1.688,0,0,0,0-2.391L19.235.491a1.687,1.687,0,0,0-2.38,0M8.125,17.175l-.047.107-.022.061a1.354,1.354,0,0,0-.07.485,1.283,1.283,0,0,1-.009.452l-.028.078c-.027.074-.123.183-.181.187l.065-.144a.766.766,0,0,0-.008-.451,1.06,1.06,0,0,1-.066-.291,2.489,2.489,0,0,0-.189.847,1.8,1.8,0,0,1-.251,1.086A2.08,2.08,0,0,1,6.2,20.2l.259-.3.1-.128a3.557,3.557,0,0,0,.546-1.108c.016-.076.04-.182.071-.3a1.152,1.152,0,0,1-.667.093l.2-.115.078-.053a2.116,2.116,0,0,0,.509-.515,2.053,2.053,0,0,1,.415-.532l.1-.068c.094-.064.294-.107.357-.059h0l.01,0Zm7.069.09c-.025.3.252-.086.467-.143a.688.688,0,0,1,.013.3c-.089.238-.377,1.022-1.152,1.128.08-1.481,1.112-2.829.167-4.068a1.72,1.72,0,0,1,.1,1.255A17.11,17.11,0,0,0,14.1,18.5a2.755,2.755,0,0,0-1.393.107c-.655.177-1.12.377-1.461.1,1.4-1.282,2.5-4.038,1.545-4.686a2.351,2.351,0,0,0-1.59-.109c-.63.26.916.206,1.56,1.282a.425.425,0,0,1-.36.069,1.463,1.463,0,0,0-1.469-.663l-.164.6c-.422.14-1.242.782-1.127,1.128.045.135.236.079.323.339.074.222-.092.406-.042.557.061.183.234.26.319.39-.784.072-.394-.377-.5-.689-.037-.112-.12-.17-.213-.139-.43.143-.29.645-.613.76-.056-.4-.367-.075-.57-.383.169-.052.384.026.544-.069.043-.09.375-.57.022-.684l0-.039c.286,0,.477-.326.109-.368l-.007-.048a1.13,1.13,0,0,0,.859-.883c.079-.342.008-.764.351-1.113-.062-.106-.095-.1-.186-.049l0-.021c-.045.055-.088.109-.128.163a1.728,1.728,0,0,0-.33.611c-.062.174-.224.518-.442.549L9,15.237c.013-.109.132-.13.123-.194-.006-.04-.025-.072-.06-.067-.328.047-.887,1.055-1.018,1.328-.113.222.291.25.47.306-.05.1-.538.1-.7.12l-.049.118-.1.189c-.031-.2-.334-.264-.418-.51-.008-.022.173-.079.192-.174.04-.2-.542.1-.245-.155a1.781,1.781,0,0,1-.059-.347l.036-.095a.767.767,0,0,0,.2.252,1.04,1.04,0,0,0,.308-.608c.054-.285.2.522.546-.759a2.4,2.4,0,0,0-.219-1.732.868.868,0,0,1,.1-.427c.2.365.481,1.1.662,1.083.361-.051.284-.562.3-.875.085-.71.513-.724.81-1.839a.241.241,0,0,1,.19-.027c.1.415-.3,1.062-.243,1.474.034.24.2.5.419.468l.025,0c.493-.182.8-1.438.664-1.861a.458.458,0,0,1,.319.081c.086.48-.131,1.4.562,1.338.42-.039.357-.872.131-1.116a.573.573,0,0,1,.285.1c.631.631.42,1.367,1.167,1.372.412,0,.15-.729.037-.879l.331.141c.635.315.634,2,1.112,2.088.24.044.258-.9.19-1.057a.967.967,0,0,1,.3.27c.156.3.12,3.056.887,1.965l.072.32c-.137.731-.946.631-1.145,1.738m1.138-9.8-1.1-1.1L16.27,5.331l1.1,1.1Zm2.2,2.2-1.1-1.1,1.038-1.038,1.1,1.1Zm2.2,2.2-1.1-1.1L20.669,9.73l1.1,1.1Z" transform="translate(0 0)" fill="#fff"/>
    </g>
  </g>
</svg>
