<svg id="Group_154" data-name="Group 154" xmlns="http://www.w3.org/2000/svg" xmlns:xlink="http://www.w3.org/1999/xlink" width="19.721" height="18.775" viewBox="0 0 19.721 18.775">
  <defs>
    <clipPath id="clip-path">
      <rect id="Rectangle_49" data-name="Rectangle 49" width="19.721" height="18.775" fill="#fff"/>
    </clipPath>
  </defs>
  <g id="Group_153" data-name="Group 153" clip-path="url(#clip-path)">
    <path id="Path_83" data-name="Path 83" d="M185.3,384.526c0-.021.009-.043.012-.065v-.006c0-.026-.009-.051-.015-.076h0a1.11,1.11,0,0,0-.545-.72,3.9,3.9,0,0,0-2.106-.477,4.1,4.1,0,0,0-2.169.474.96.96,0,0,0-.579.808v.653a1.133,1.133,0,0,0,.6,1.142,4.169,4.169,0,0,0,1.947.452c.07,0,.146,0,.223,0a5.176,5.176,0,0,0,1.075-.1,3.359,3.359,0,0,0,1.12-.433.952.952,0,0,0,.452-1.059Z" transform="translate(-172.734 -367.94)" fill="#fff"/>
    <path id="Path_84" data-name="Path 84" d="M266.286,240.079a1.37,1.37,0,0,0-.973-.4h-4.692a.035.035,0,0,1-.032-.019l-2.3-3.982-1.094,1.893,2.573,4.45a.914.914,0,0,0,.4.379.31.31,0,0,0,.14.032h5.007a1.378,1.378,0,0,0,1.377-1.377,1.351,1.351,0,0,0-.4-.97" transform="translate(-246.969 -226.303)" fill="#fff"/>
    <path id="Path_85" data-name="Path 85" d="M14.438,2.713l.734-1.271a.9.9,0,0,0,.134-.48A.948.948,0,0,0,13.537.487l-.823,1.425L6.1,13.367a.035.035,0,0,1-.032.019H1.377a1.4,1.4,0,0,0-.977.4,1.379,1.379,0,0,0,.977,2.351H6.383a.311.311,0,0,0,.14-.032.9.9,0,0,0,.394-.375Z" transform="translate(0 -0.014)" fill="#fff"/>
    <path id="Path_86" data-name="Path 86" d="M111.977,2.833h0l.274.474v0L115.021,8.1l1.094-1.9L113.627,1.9h0L112.8.473a.948.948,0,1,0-1.641.948Z" transform="translate(-106.62 0)" fill="#fff"/>
  </g>
</svg>
