<svg data-name="Group 261" xmlns="http://www.w3.org/2000/svg" width="28.27" height="42.2" viewBox="0 0 28.27 42.2"><defs><clipPath id="a"><path data-name="Rectangle 63" fill="#e5b75f" d="M0 0h28.27v25.74H0z"/></clipPath></defs><g data-name="Group 251"><g data-name="Group 250" clip-path="url(#a)"><path data-name="Path 91" d="M26.341 4.35a2.879 2.879 0 00-3.229.142C23.2 2.3 23.15.82 23.141.618A.643.643 0 0022.5 0H5.766a.644.644 0 00-.644.618c-.008.2-.059 1.685.031 3.874a2.872 2.872 0 00-3.229-.142c-1.937 1.279-2.514 5-1.26 8.118 1.792 4.46 7.708 8.49 7.959 8.66.024.017.053.012.079.024a16.471 16.471 0 003.044 4.4.648.648 0 00.456.188h3.861a.648.648 0 00.456-.188 16.471 16.471 0 003.044-4.4c.026-.013.054-.008.079-.024.251-.17 6.168-4.2 7.959-8.66 1.254-3.121.677-6.838-1.26-8.118M1.859 11.987c-1.1-2.736-.5-5.721.775-6.562.9-.591 1.9.07 2.613.761A46.524 46.524 0 007.7 18.824c-1.853-1.488-4.752-4.124-5.841-6.837M13.9 23.023a.645.645 0 01-.906-.09C8.248 17.134 7.75 5.5 7.7 3.232a.644.644 0 01.629-.658h.011a.643.643 0 01.644.629c.138 6.073 1.532 14.669 5 18.914a.643.643 0 01-.091.9m12.513-11.03c-1.089 2.711-3.989 5.348-5.843 6.837a46.524 46.524 0 002.456-12.638c.709-.69 1.714-1.351 2.613-.761 1.273.84 1.874 3.825.775 6.562" fill="#e5b75f"/></g></g><path data-name="Rectangle 64" fill="#e5b564" d="M0 27.967h27.59v14.24H0z"/><text data-name="2011" transform="translate(4.56 38.857)" font-size="10" font-weight="500"><tspan x="0" y="0">2011</tspan></text></svg>