<svg xmlns="http://www.w3.org/2000/svg" width="27.59" height="43.55" viewBox="0 0 27.59 43.55"><defs><clipPath id="a"><path data-name="Rectangle 258" fill="#e5b75f" d="M0 0h16.39v28.2H0z"/></clipPath></defs><g data-name="Group 888"><g data-name="Group 884"><g data-name="Group 883" clip-path="url(#a)" transform="translate(6)"><path data-name="Path 137" d="M0 .991C.053.974.095.958.137.945L1.977.41a.938.938 0 01.335-.04c.164.012.327.03.488.03a2.9 2.9 0 00.376 0C3.57.36 3.963.316 4.357.278c.18-.017.361-.03.542-.04C5.2.222 5.5.21 5.8.2c.045 0 .089-.008.14-.013l.029-.15c.043-.046.1-.034.146-.035H10.393c.067 0 .134 0 .206.005l.041.161a.467.467 0 00.178.026c.52.027 1.04.049 1.559.081.31.019.62.052.93.081a.777.777 0 00.3-.007.573.573 0 01.135-.01l.441-.02a1.04 1.04 0 01.352.04l1.756.52c.026.008.052.019.082.031a1.156 1.156 0 01.009.12l-.071 3.158c-.017.8-.03 1.608-.049 2.411a145.559 145.559 0 01-.16 4.446q-.034.721-.081 1.441a123.151 123.151 0 01-.238 3.03c-.083.868-.172 1.734-.325 2.593-.084.473-.155.949-.247 1.421a23.818 23.818 0 01-1.251 4.33 11.081 11.081 0 01-.69 1.418 8.872 8.872 0 01-1.465 1.841 3.07 3.07 0 01-.1.095.118.118 0 00-.016.029c.009.038.041.031.067.034.4.035.8.067 1.2.106a3.3 3.3 0 01.333.062.523.523 0 01.1.03.161.161 0 01.042.292l-.046.037v3.5a.445.445 0 00.2.047 2.133 2.133 0 01.3.069c.129.046.152.092.149.231a.481.481 0 000 .051.221.221 0 01-.116.227.118.118 0 00-.023.024c-.02.16-.009 3.606.014 3.814.038.009.081.021.123.03.083.017.168.028.249.051a.157.157 0 01.129.174v.051a.282.282 0 01-.128.293c-.009.006-.013.018-.029.04v.122l.054 4.025v.119a.223.223 0 00.079.193.341.341 0 01.058.364.235.235 0 01-.109.1 1.921 1.921 0 01-.551.214c-.574.126-1.151.245-1.732.331-.3.044-.595.075-.892.112-.213.026-.426.055-.64.078a18.022 18.022 0 01-2.048.135c-.43 0-.86.005-1.29-.01-.384-.013-.768-.047-1.151-.079-.259-.021-.517-.057-.776-.083a16.835 16.835 0 01-1.676-.261 21.03 21.03 0 01-.827-.186 4.5 4.5 0 01-.434-.146.886.886 0 01-.167-.083.306.306 0 01-.138-.351.172.172 0 01.044-.089.2.2 0 00.053-.17V39.45q0-1.444-.011-2.887v-.068a.209.209 0 00-.058-.17.265.265 0 01-.051-.255.235.235 0 01.156-.187c.1-.032.207-.054.311-.078.037-.009.076-.011.122-.018 0-.052.009-.1.009-.14v-3.6a.3.3 0 00-.063-.2.349.349 0 01-.019-.341c.015-.049.068-.072.118-.09a1.954 1.954 0 01.429-.1l.142-.016a.453.453 0 00.022-.1v-.425Q3.2 29.406 3.2 28.03v-.189a.383.383 0 01-.069-.052.194.194 0 01-.048-.084c-.021-.129.017-.186.146-.224a3.844 3.844 0 01.681-.134c.292-.031.586-.051.879-.075l.072-.009c0-.058-.046-.08-.077-.108a7.726 7.726 0 01-.958-1.055 10.206 10.206 0 01-1.141-1.982c-.242-.543-.429-1.107-.624-1.668a25.125 25.125 0 01-.861-3.213c-.074-.36-.123-.725-.178-1.089q-.1-.654-.19-1.31c-.043-.314-.08-.629-.115-.944Q.655 15.3.6 14.713c-.041-.428-.079-.857-.115-1.285q-.051-.558-.091-1.117t-.076-1.118c-.035-.576-.072-1.152-.1-1.729Q.171 8.5.137 7.529C.117 6.958.1 6.387.087 5.815.078 5.475.077 5.136.07 4.8L.009 1.825C0 1.6 0 1.372 0 1.145c0-.05 0-.1.005-.154m2.714 3.668h-.031c0 .038-.007.076-.006.113.021.923.038 1.845.066 2.768.029.945.065 1.89.1 2.834.034.82.076 1.64.115 2.46q.017.365.04.729c.027.452.055.9.085 1.356.036.536.069 1.073.115 1.609.057.671.125 1.341.189 2.012a31.252 31.252 0 00.792 4.596 11.436 11.436 0 00.673 1.991 8.9 8.9 0 00.612 1.135c.015.023.02.07.078.052 0-.03.008-.063.008-.1v-.611c0-.266-.015-.532-.021-.8-.024-1.087-.042-2.174-.073-3.26-.023-.815-.061-1.629-.094-2.444-.014-.362-.028-.724-.048-1.086q-.04-.7-.091-1.406c-.025-.344-.057-.688-.088-1.032-.024-.265-.052-.529-.075-.794a.5.5 0 01.01-.184.341.341 0 00.006-.149l-.088-.725c-.048-.393-.08-.789-.148-1.179-.127-.73-.259-1.46-.416-2.184q-.39-1.8-.917-3.566a14.352 14.352 0 00-.726-1.991l-.072-.153m8.287 21.6l.029.008c.016-.022.033-.043.046-.066A10.141 10.141 0 0012 24.218a27.918 27.918 0 001.016-4.55c.092-.65.166-1.3.213-1.958s.09-1.287.132-1.931c.017-.26.028-.52.04-.78.029-.611.065-1.221.085-1.832a160.745 160.745 0 00.084-4.602V4.981a.549.549 0 000-.068c0-.02 0-.047-.039-.051-.015.031-.032.065-.047.1A10.4 10.4 0 0013.112 6c-.391 1.278-.7 2.577-.983 3.882-.2.918-.38 1.84-.49 2.774-.062.528-.133 1.056-.162 1.587 0 .084-.023.168-.034.252a.219.219 0 00-.007.081.7.7 0 010 .253c-.04.445-.084.89-.119 1.336-.033.418-.059.836-.081 1.254q-.05.941-.091 1.883c-.022.492-.041.984-.056 1.476-.025.866-.051 1.732-.065 2.6-.015.923-.018 1.845-.025 2.768 0 .039 0 .077.006.116" fill="#e5b75f"/></g></g><path data-name="Rectangle 64" fill="#e5b564" d="M0 29.31h27.59v14.24H0z"/><text data-name="2019" transform="translate(4 40.2)" font-size="10" font-family="Helvetica"><tspan x="0" y="0">2019</tspan></text></g></svg>