<svg version="1.1" id="Vrstva_1" xmlns="http://www.w3.org/2000/svg" xmlns:xlink="http://www.w3.org/1999/xlink" x="0" y="0" viewBox="0 0 27.59 43.55" xml:space="preserve"><style>.st4{fill:#010202}</style><g id="Group_888"><g transform="translate(653 45.657)" id="Group_884"><defs><path id="SVGID_1_" d="M-647-45.66h16.39v28.2H-647z"/></defs><clipPath id="SVGID_00000067225909691656364850000018119367961123554213_"><use xlink:href="#SVGID_1_" overflow="visible"/></clipPath><g id="Group_883" clip-path="url(#SVGID_00000067225909691656364850000018119367961123554213_)"><path id="Path_137" d="M-647-44.67c.05-.02.09-.03.14-.05l1.84-.53c.11-.03.22-.05.34-.04.16.01.33.03.49.03.13.01.25.01.38 0l1.18-.12c.18-.02.36-.03.54-.04.3-.02.6-.03.9-.04.04 0 .09-.01.14-.01l.03-.15c.04-.05.1-.03.15-.03H-636.59c.07 0 .13 0 .21.01l.04.16c.06.02.12.03.18.03.52.03 1.04.05 1.56.08.31.02.62.05.93.08.1.02.2.01.3-.01.04-.01.09-.01.14-.01l.44-.02c.12-.01.24.01.35.04l1.76.52c.03.01.05.02.08.03.01.04.01.08.01.12-.02 1.05-.05 2.11-.07 3.16-.02.8-.03 1.61-.05 2.41l-.06 2.16c-.03.76-.06 1.53-.1 2.29-.02.48-.05.96-.08 1.44l-.12 1.64c-.04.46-.07.93-.12 1.39-.08.87-.17 1.73-.33 2.59-.08.47-.16.95-.25 1.42-.28 1.48-.7 2.93-1.25 4.33-.2.49-.43.96-.69 1.42-.4.68-.9 1.3-1.47 1.84-.03.03-.07.06-.1.09-.01.01-.01.02-.02.03.01.04.04.03.07.03.4.03.8.07 1.2.11.11.01.22.04.33.06l.1.03c.09.02.14.11.11.2a.16.16 0 01-.07.09c-.02.01-.03.03-.05.04v3.5c.06.03.13.05.2.05.1.02.2.04.3.07.13.05.15.09.15.23v.05a.23.23 0 01-.12.23c-.01.01-.02.01-.02.02-.02.16-.01 3.61.01 3.81l.12.03c.08.02.17.03.25.05.08.01.14.09.13.17v.05c.02.11-.03.23-.13.29-.01.01-.01.02-.03.04v.12c.02 1.34.04 2.68.05 4.03v.12a.2.2 0 00.08.19c.09.1.11.24.06.36-.02.04-.06.08-.11.1-.17.1-.36.17-.55.21-.57.13-1.15.24-1.73.33-.3.04-.59.08-.89.11-.21.03-.43.06-.64.08-.68.08-1.36.13-2.05.13-.43 0-.86.01-1.29-.01-.38-.01-.77-.05-1.15-.08-.26-.02-.52-.06-.78-.08-.56-.06-1.12-.15-1.68-.26-.28-.06-.55-.12-.83-.19-.15-.04-.29-.09-.43-.15-.06-.02-.11-.05-.17-.08a.31.31 0 01-.14-.35c.01-.03.02-.06.04-.09.04-.05.06-.11.05-.17v-1.29c0-.96 0-1.93-.01-2.89v-.07a.192.192 0 00-.06-.17.27.27 0 01-.05-.26c.01-.09.07-.16.16-.19.1-.03.21-.05.31-.08.04-.01.08-.01.12-.02 0-.05.01-.1.01-.14v-3.6a.36.36 0 00-.06-.2.344.344 0 01-.02-.34c.02-.05.07-.07.12-.09.14-.05.28-.08.43-.1l.14-.02c.01-.03.02-.07.02-.1v-.42c-.01-.91-.02-1.83-.02-2.74v-.19a.304.304 0 01-.07-.05.218.218 0 01-.05-.08c-.02-.13.02-.19.15-.22.22-.07.45-.11.68-.13.29-.03.59-.05.88-.08l.07-.01c0-.06-.05-.08-.08-.11-.35-.32-.67-.67-.96-1.05-.45-.62-.84-1.28-1.14-1.98-.24-.54-.43-1.11-.62-1.67-.36-1.05-.65-2.12-.86-3.21-.07-.36-.12-.73-.18-1.09-.07-.44-.13-.87-.19-1.31-.04-.31-.08-.63-.11-.94l-.12-1.18c-.04-.43-.08-.86-.11-1.28l-.09-1.12c-.03-.37-.05-.75-.08-1.12-.03-.58-.07-1.15-.1-1.73-.03-.64-.06-1.29-.08-1.94-.02-.57-.04-1.14-.05-1.71-.01-.34-.01-.68-.02-1.02l-.06-2.97c-.01-.22-.01-.45-.01-.68.02-.03.02-.08.02-.14m2.72 3.67h-.03c0 .04-.01.08-.01.11.02.92.04 1.85.07 2.77.03.94.07 1.89.1 2.83.03.82.08 1.64.11 2.46.01.24.02.49.04.73.03.45.05.9.09 1.36.04.54.07 1.07.11 1.61.06.67.12 1.34.19 2.01.06.65.15 1.3.25 1.95.14.89.32 1.77.54 2.64.16.68.39 1.35.67 1.99.18.39.38.77.61 1.14.02.02.02.07.08.05 0-.03.01-.06.01-.1v-.61c0-.27-.02-.53-.02-.8a354.5 354.5 0 00-.07-3.26c-.02-.82-.06-1.63-.09-2.44-.01-.36-.03-.72-.05-1.09l-.09-1.41-.09-1.03c-.02-.26-.05-.53-.08-.79-.01-.06 0-.12.01-.18.01-.05.02-.1.01-.15l-.09-.73c-.05-.39-.08-.79-.15-1.18-.13-.73-.26-1.46-.42-2.18-.26-1.2-.57-2.39-.92-3.57-.19-.68-.44-1.35-.73-1.99l-.05-.14m8.28 21.59l.03.01c.02-.02.03-.04.05-.07.38-.62.69-1.28.92-1.97.46-1.49.8-3.01 1.02-4.55.09-.65.17-1.3.21-1.96s.09-1.29.13-1.93c.02-.26.03-.52.04-.78.03-.61.07-1.22.09-1.83.03-.76.04-1.53.06-2.29s.02-1.54.03-2.31v-3.58-.07c0-.02 0-.05-.04-.05-.02.03-.03.07-.05.1-.14.34-.27.69-.37 1.04-.39 1.28-.7 2.58-.98 3.88-.2.92-.38 1.84-.49 2.77-.06.53-.13 1.06-.16 1.59 0 .08-.02.17-.03.25-.01.03-.01.05-.01.08.02.08.02.17 0 .25l-.12 1.34c-.03.42-.06.84-.08 1.25l-.09 1.88-.06 1.48c-.02.87-.05 1.73-.07 2.6-.02.92-.02 1.84-.02 2.77 0 .04 0 .08.01.12" fill="#e4b75e"/></g></g><path id="Rectangle_64-2" fill="#e4b563" d="M0 29.31h27.59v14.24H0z"/><path class="st4" d="M6.04 39.18c0 .01.01.02.03.02h2.85c.03 0 .06.01.08.04s.04.05.04.08v.76c0 .03-.01.06-.04.08s-.05.04-.08.04h-4.3a.09.09 0 01-.08-.04c-.02-.02-.04-.05-.04-.08v-.72c0-.06.02-.11.06-.15.51-.54 1.09-1.2 1.76-1.99l.47-.55c.61-.71.92-1.25.92-1.62 0-.27-.1-.5-.29-.67-.19-.17-.44-.26-.75-.26s-.55.09-.75.26c-.19.17-.28.4-.28.69v.26c0 .03-.01.06-.04.08s-.05.04-.08.04h-.93c-.03 0-.06-.01-.08-.04s-.03-.05-.03-.08v-.43c.01-.36.12-.67.31-.94s.46-.47.79-.62c.33-.15.7-.22 1.1-.22.45 0 .84.08 1.17.25.33.17.59.4.77.69.18.29.27.61.27.97 0 .55-.29 1.18-.87 1.89-.32.4-.85 1-1.58 1.8l-.38.42c-.02.01-.03.03-.02.04zM10.67 39.71c-.41-.4-.62-.93-.62-1.6v-2.82c0-.67.21-1.2.62-1.58s.96-.58 1.67-.58c.7 0 1.26.2 1.67.58s.62.92.62 1.58v2.82c0 .67-.21 1.21-.62 1.6-.42.4-.98.6-1.67.6-.7 0-1.25-.2-1.67-.6zm2.5-.71c.21-.2.31-.48.31-.83v-2.92c0-.35-.1-.62-.31-.83-.21-.2-.48-.3-.83-.3-.34 0-.61.1-.81.3-.2.2-.31.48-.31.83v2.92c0 .35.1.62.31.83.2.2.48.3.81.3.35 0 .62-.1.83-.3zM16.77 33.2h.96c.03 0 .06.01.08.04s.04.05.04.08v6.76c0 .03-.01.06-.04.08s-.05.04-.08.04h-.92c-.03 0-.06-.01-.08-.04s-.04-.05-.04-.08V34.4c0-.01-.01-.03-.02-.04s-.03-.01-.04 0l-1 .31c-.01.01-.03.01-.05.01-.03 0-.05-.01-.06-.03-.02-.02-.02-.05-.02-.08l-.03-.66c0-.07.03-.11.08-.14l1.08-.54a.32.32 0 01.14-.03zM23.32 35.42v3.05c0 .36-.09.68-.27.95s-.43.49-.75.64c-.32.15-.7.22-1.12.22-.41 0-.77-.07-1.08-.22s-.56-.35-.74-.62c-.18-.27-.27-.57-.27-.92v-.22c0-.03.01-.06.04-.08.02-.02.05-.03.08-.03h.92c.03 0 .06.01.08.03.02.02.04.05.04.08v.07c0 .27.09.49.26.66s.4.25.67.25c.29 0 .52-.09.71-.26.18-.18.27-.41.27-.69v-1.1c0-.02-.01-.03-.02-.04-.01-.01-.03 0-.04.01-.29.28-.68.42-1.17.42-.39 0-.74-.08-1.03-.25-.3-.17-.53-.41-.7-.72-.19-.33-.28-.75-.28-1.24 0-.41.07-.76.2-1.07.16-.38.41-.68.76-.89.35-.21.76-.32 1.23-.32.5 0 .93.12 1.29.35.36.23.61.55.76.96.11.28.16.61.16.98zm-1.16-.06c0-.25-.04-.48-.13-.67-.16-.37-.46-.55-.9-.55-.43 0-.73.18-.9.54-.1.22-.15.46-.15.71 0 .3.06.56.18.77.19.32.47.48.86.48.41 0 .71-.17.88-.5.11-.21.16-.47.16-.78z"/></g></svg>