<svg xmlns="http://www.w3.org/2000/svg" width="26.91" height="41.75" viewBox="0 0 26.91 41.75"><path data-name="Path 120" d="M2.446 9.785h9.786v14.76H6.116a1.223 1.223 0 000 2.446h6.116v7.888l-9.109 4.555a1.223 1.223 0 00.547 2.317h19.571a1.223 1.223 0 00.547-2.317l-9.109-4.555v-7.887h6.116a1.223 1.223 0 100-2.446h-6.116V9.785h2.446v3.67a1.222 1.222 0 001.223 1.223h7.339a1.223 1.223 0 000-2.446h-6.116V9.785h4.893a2.45 2.45 0 002.446-2.446V2.446A2.45 2.45 0 0024.464 0H2.446A2.45 2.45 0 000 2.446v4.893a2.45 2.45 0 002.446 2.446z" fill="#c8141e"/></svg>