<svg xmlns="http://www.w3.org/2000/svg" width="19.55" height="19" viewBox="0 0 19.55 19"><defs><clipPath id="a"><path data-name="Rectangle 30" fill="#fff" d="M0 0h19.55v19H0z"/></clipPath></defs><g data-name="Group 55" clip-path="url(#a)"><path data-name="Path 60" d="M.826-.001a.826.826 0 100 1.652H2.3a.573.573 0 01.544.392l2.724 8.172a2.014 2.014 0 01.044 1.125l-.224.9a2.135 2.135 0 002.052 2.63h9.913a.826.826 0 100-1.652H7.435a.446.446 0 01-.45-.576l.169-.675a.529.529 0 01.513-.4h8.855a.826.826 0 00.784-.568l2.2-6.609a.826.826 0 00-.784-1.087H5.415a.573.573 0 01-.544-.392L4.089.565A.826.826 0 003.3-.001zm5.783 15.7a1.652 1.652 0 101.652 1.652 1.652 1.652 0 00-1.652-1.652m9.913 0a1.652 1.652 0 101.652 1.652 1.652 1.652 0 00-1.652-1.652" fill="#fff"/></g></svg>