<svg xmlns="http://www.w3.org/2000/svg" width="20" height="20" viewBox="0 0 20 20"><defs><clipPath id="a"><path data-name="Rectangle 5" fill="#373737" d="M0 0h20v20H0z"/></clipPath></defs><g data-name="Group 8"><g data-name="Group 7" clip-path="url(#a)"><g data-name="Group 6"><g data-name="Group 5" clip-path="url(#a)"><g data-name="Group 4" opacity=".75"><g data-name="Group 3" clip-path="url(#a)"><path data-name="Path 7" d="M1.1 20A1.1 1.1 0 010 18.9V1.1A1.1 1.1 0 011.1 0h17.8A1.1 1.1 0 0120 1.1v17.8a1.1 1.1 0 01-1.1 1.1h-5.1v-7.745h2.6l.389-3.019H13.8V7.309c0-.873.243-1.469 1.5-1.469h1.6v-2.7a21.294 21.294 0 00-2.329-.119 3.636 3.636 0 00-3.888 3.989v2.226H8.076v3.019h2.607V20z" fill="#373737" fill-rule="evenodd"/></g></g></g></g></g></g></svg>