<svg xmlns="http://www.w3.org/2000/svg" width="20" height="20" viewBox="0 0 20 20"><defs><clipPath id="a"><path data-name="Rectangle 8" fill="#373737" d="M0 0h20v20H0z"/></clipPath></defs><g data-name="Group 15"><g data-name="Group 14" clip-path="url(#a)"><g data-name="Group 13"><g data-name="Group 12" clip-path="url(#a)"><g data-name="Group 11" opacity=".75"><g data-name="Group 10" clip-path="url(#a)"><path data-name="Path 8" d="M10 0c2.716 0 3.056.012 4.123.06a7.355 7.355 0 012.427.465 4.905 4.905 0 011.772 1.153 4.905 4.905 0 011.153 1.772 7.355 7.355 0 01.465 2.427C19.988 6.944 20 7.284 20 10s-.012 3.056-.06 4.123a7.355 7.355 0 01-.465 2.427 5.106 5.106 0 01-2.925 2.925 7.355 7.355 0 01-2.427.465c-1.067.049-1.407.06-4.123.06s-3.056-.011-4.123-.06a7.355 7.355 0 01-2.427-.465 4.905 4.905 0 01-1.772-1.153A4.892 4.892 0 01.525 16.55a7.355 7.355 0 01-.465-2.427C.011 13.056 0 12.716 0 10s.011-3.056.06-4.123A7.355 7.355 0 01.525 3.45a4.892 4.892 0 011.153-1.772A4.905 4.905 0 013.45.525 7.355 7.355 0 015.877.06C6.944.012 7.284 0 10 0m0 1.8c-2.67 0-2.986.01-4.041.058A5.552 5.552 0 004.1 2.2a3.117 3.117 0 00-1.15.748A3.112 3.112 0 002.2 4.1a5.552 5.552 0 00-.34 1.859C1.812 7.014 1.8 7.33 1.8 10s.01 2.986.058 4.041A5.552 5.552 0 002.2 15.9a3.31 3.31 0 001.9 1.9 5.552 5.552 0 001.857.344c1.054.048 1.371.058 4.041.058s2.987-.01 4.041-.058A5.552 5.552 0 0015.9 17.8a3.318 3.318 0 001.9-1.9 5.578 5.578 0 00.344-1.857c.048-1.055.058-1.371.058-4.041s-.01-2.986-.058-4.041A5.578 5.578 0 0017.8 4.1a3.115 3.115 0 00-.749-1.15A3.113 3.113 0 0015.9 2.2a5.552 5.552 0 00-1.857-.344C12.986 1.812 12.67 1.8 10 1.8m0 3.063A5.135 5.135 0 114.865 10 5.135 5.135 0 0110 4.865m0 8.468A3.333 3.333 0 106.667 10 3.333 3.333 0 0010 13.333m6.538-8.671a1.2 1.2 0 11-1.2-1.2 1.2 1.2 0 011.2 1.2" fill="#373737" fill-rule="evenodd"/></g></g></g></g></g></g></svg>