<svg xmlns="http://www.w3.org/2000/svg" width="145" height="145" viewBox="0 0 145 145"><defs><clipPath id="a"><path data-name="Rectangle 2" fill="#c8141e" d="M0 0h132.9v132.9H0z"/></clipPath></defs><g data-name="Group 17" transform="translate(-354.324 -61.227)"><circle data-name="Ellipse 1" cx="72.5" cy="72.5" r="72.5" transform="translate(354.324 61.227)" fill="#fff"/><g data-name="Group 2"><g data-name="Group 1" clip-path="url(#a)" fill="#c8141e" transform="translate(360.253 67.259)"><path data-name="Path 1" d="M17.478 53.507l1.867-4.608-2.776-1.124.9-2.233 2.777 1.124 1.868-4.609-8.964-3.632-1.872 4.609 3.136 1.271-.9 2.232-3.136-1.27-1.867 4.608zm12.089-20.658a10.531 10.531 0 002.066-3.12 4.291 4.291 0 00.207-2.763 5.3 5.3 0 00-1.66-2.474 5.282 5.282 0 00-2.629-1.394 4.3 4.3 0 00-2.728.5 10.533 10.533 0 00-2.881 2.373 10.492 10.492 0 00-2.064 3.106 4.273 4.273 0 00-.209 2.757 5.3 5.3 0 001.658 2.47 5.321 5.321 0 002.631 1.4 4.3 4.3 0 002.72-.487 10.483 10.483 0 002.885-2.368m-2.146-1.937a1.391 1.391 0 01-1.609.4 2.928 2.928 0 01-.946-.6 2.462 2.462 0 01-.862-1.3 1.61 1.61 0 011.57-1.739 2.453 2.453 0 011.384.723 2.876 2.876 0 01.693.882 1.52 1.52 0 01.151.862 1.472 1.472 0 01-.383.776m20.086-11.622l-1.581-2.978a15.2 15.2 0 01-1.5 1.184 15.85 15.85 0 01-1.592.971 3.256 3.256 0 01-1.656.479 1.163 1.163 0 01-.992-.667 1.224 1.224 0 01.044-1.311 4.131 4.131 0 011.583-1.262 14.238 14.238 0 011.35-.618 28.533 28.533 0 011.77-.64l-1.781-3.358q-1.257.441-2.317.882t-1.916.891a8.079 8.079 0 00-3.8 3.437 4.52 4.52 0 00.365 4.153 4.619 4.619 0 003.249 2.651 7.864 7.864 0 004.935-1.172 19.33 19.33 0 001.875-1.148q.961-.665 1.968-1.5m5.333-1.488l4.809-.757-.284-1.8q-.047-.3-.126-.689c-.055-.262-.114-.551-.185-.87.125.171.262.339.406.5s.3.323.46.482l2.12 2 5.478-.862-4.5-4.037 3.251-5.558-5.877.926-1.291 3.1q-.129.306-.234.585c-.068.186-.13.366-.181.547-.033-.337-.064-.63-.089-.874s-.051-.435-.075-.576l-.38-2.432-4.81.758zm17.6-1.375l10.67 1.7.4-2.52-5.862-.934.134-.849 5.862.934.35-2.185-5.863-.934.141-.888 5.862.936.5-3.113-10.671-1.7zm18.21 5.276l4.314 2.4 1.391-2.5 6.889-3.96-4.618-2.566-1.592 1.229a4.4 4.4 0 00-.336.3c-.156.156-.364.366-.615.629.059-.25.1-.485.138-.708s.06-.427.077-.618l.176-2.031-4.813-2.676.361 8.035zm21.5 20.035l2.763-1.932a15.08 15.08 0 01-1.356-1.341 15.574 15.574 0 01-1.156-1.46 3.242 3.242 0 01-.68-1.585 1.164 1.164 0 01.542-1.067 1.227 1.227 0 011.306-.116 4.133 4.133 0 011.446 1.418 14.216 14.216 0 01.776 1.264q.41.737.851 1.679l3.118-2.178q-.593-1.193-1.16-2.191t-1.12-1.785a8.094 8.094 0 00-3.874-3.35 4.526 4.526 0 00-4.082.856 4.614 4.614 0 00-2.235 3.547 7.864 7.864 0 001.763 4.756 19.491 19.491 0 001.369 1.722q.775.872 1.724 1.771m2.13 5.181l2.8 8.658 3.282-1.063-1.273-3.926 5.919-1.918-1.523-4.732zm13.295 17.922l-.17-4.972-5.894.2a6.608 6.608 0 00-1.159.128 3.33 3.33 0 00-.919.326 2.51 2.51 0 00-.7.565 4.352 4.352 0 00-.892 1.985 12.948 12.948 0 00-.2 3.066 14.408 14.408 0 00.308 2.71 4.978 4.978 0 00.761 1.817 2.862 2.862 0 001.294 1 4.837 4.837 0 001.911.264l5.894-.2-.17-4.971-5.516.188a4.215 4.215 0 01-.884-.037.866.866 0 01-.531-.264 1.175 1.175 0 01-.039-1.227.894.894 0 01.515-.3 4.174 4.174 0 01.875-.1zm-10.462 12.949l-3.1 8.055a5.5 5.5 0 00-.465 2.978 2.125 2.125 0 001.435 1.606 2.037 2.037 0 001.185.134 2 2 0 001.01-.611 5.777 5.777 0 00.926-1.363 4.184 4.184 0 00.084 2.269 2.077 2.077 0 001.247 1.228 2.175 2.175 0 001.395.117 2.316 2.316 0 001.155-.837 6.809 6.809 0 00.957-1.794l3.2-8.309zm.45 5.39l1.288.5-.666 1.721a1.474 1.474 0 01-.443.677.571.571 0 01-.58.059.563.563 0 01-.391-.465 1.861 1.861 0 01.168-.876zm3.158 1.216l1.24.476-.655 1.7a1.725 1.725 0 01-.242.464.53.53 0 01-.3.2.705.705 0 01-.4-.052.576.576 0 01-.376-.411 1.248 1.248 0 01.097-.722z"/><path data-name="Path 2" d="M8.878 81.817a10.5 10.5 0 001.43 3.457 4.3 4.3 0 002.174 1.718 5.278 5.278 0 002.979 0 5.247 5.247 0 002.626-1.4 4.29 4.29 0 001.113-2.538 10.483 10.483 0 00-.356-3.716 10.5 10.5 0 00-1.422-3.451 4.285 4.285 0 00-2.17-1.714 5.3 5.3 0 00-2.975-.006 5.325 5.325 0 00-2.631 1.4 4.286 4.286 0 00-1.118 2.53 10.441 10.441 0 00.35 3.716m2.8-.7a1.39 1.39 0 01.568-1.558 2.928 2.928 0 011.026-.449 2.473 2.473 0 011.561.014 1.612 1.612 0 01.565 2.275 2.464 2.464 0 01-1.374.745 2.862 2.862 0 01-1.118.08 1.5 1.5 0 01-.8-.356 1.443 1.443 0 01-.431-.75M21.82 105.28l2.729-1.979a15.751 15.751 0 01-1.382-1.318 15.923 15.923 0 01-1.18-1.439 3.259 3.259 0 01-.706-1.573 1.163 1.163 0 01.523-1.076 1.228 1.228 0 011.3-.139 4.13 4.13 0 011.47 1.392 14.221 14.221 0 01.8 1.252c.282.486.573 1.042.88 1.664l3.076-2.231q-.612-1.184-1.2-2.171t-1.148-1.773a8.086 8.086 0 00-3.924-3.279 4.515 4.515 0 00-4.063.927 4.609 4.609 0 00-2.174 3.585 7.867 7.867 0 001.846 4.724 19.367 19.367 0 001.4 1.7q.793.858 1.755 1.741m6.756 7.023l5.274-8.107 9.057 5.892-1.719 2.641-4.976-3.239-.489.754 4.976 3.237-1.208 1.855-4.975-3.238-.468.721 4.976 3.24-1.393 2.137zm18.179 9.825l8.787 2.363.9-3.332-3.986-1.071 1.617-6.009-4.8-1.291zm20.9-7.8l3.2-.277 1.7-1.833-4.1.354zm-3.717 11.272l4.995-.432.294-1.28 3.062-.265.483 1.212 5.018-.433-3.959-9.367-7.613.659zm5.589-4.431l.448-1.921c.059-.239.106-.506.147-.791s.073-.591.1-.915a13.385 13.385 0 00.534 1.64l.771 1.815zm16.1-12.872l-1.85.9 1.577 1.1 3.279-1.595.107-1.921-1.849.9-.256 1.079zm.862 13.58l-4.234-8.7 8.381-4.078a3.655 3.655 0 012.479-.426 2.525 2.525 0 011.625 1.473 2.688 2.688 0 01.2 2.144 3.79 3.79 0 01-1.635 1.813l4.81 2.118-5.162 2.512-2.554-1.26c-.067-.032-.178-.09-.327-.177s-.338-.2-.558-.334c.113.191.227.391.345.6s.23.435.344.67l.725 1.486zm2.237-6.707l.855-.415a4.359 4.359 0 00.871-.528 1.1 1.1 0 00.384-.554.933.933 0 00-.1-.655.759.759 0 00-.406-.414 1.027 1.027 0 00-.622.014 5.31 5.31 0 00-.887.362l-.949.462zm16.6-4.714l3.6-3.469-6.713-6.966-3.6 3.47z"/><path data-name="Path 3" d="M61.298 43.315l-.915-.623c-1.949.783-2.979-.608-4.822-.074l-.116.79c-.638-.007-1.807 1.519-1.44 1.783.06.042 5.4-1.909 7.294-1.877m3.423 53.858c-1.192-.574-.514-2.623-8.5-7-4.687-2.568-8.425-3.975-8.872-7.386 14.93.332 36.248-9.314 34.361-18.2-.616-2.416-5.01-8.113-8.444-9.3-5-1.964 4.087 6.171 1.872 15.806a3.347 3.347 0 01-2.421-1.577c.107-3.659.223-9.142-4.727-11.788l-4.2 2.508c-3.166-1.507-11.33-2.333-12.564.26-.483 1.013.912 1.737-.017 3.688-.794 1.666-2.741 1.8-3.279 2.934-.655 1.375-.091 2.758-.314 3.956-4.849-3.867-.178-4.294.936-6.633.4-.84.249-1.621-.449-1.954-3.227-1.535-5.171 2.084-7.635.977 1.863-2.585-1.685-2.432-1.154-5.291 1.244.626 2.036 2.244 3.473 2.577.732-.275 5.238-1.192 3.857-3.769l.233-.208c1.644 1.538 4.494.754 2.625-1.5l.218-.312c2.962 2.349 7.467 1.125 9.7-.331 2.315-1.509 4.218-4.3 8.073-4.408.226-.944.02-1.1-.791-1.3l.138-.1c-.557.065-1.1.143-1.614.228a13.624 13.624 0 00-5.212 1.673c-1.3.654-4.1 1.727-5.512.712l-.957-.687c.671-.55 1.464-.018 1.759-.429.188-.259.248-.546.025-.707-2.119-1.525-10.8 1.154-13.039 1.989-1.855.645.289 3.006 1 4.3-.851.318-3.619-2.354-4.609-3.118l-.926.4-1.587.538c.9-1.293-.457-3.324.406-5.183.078-.169 1.416.492 2.037.059 1.326-.924-3.61-2.405-.547-2.217a14.016 14.016 0 011.567-2.282l.723-.342a6.05 6.05 0 00-.213 2.547 8.193 8.193 0 005.073-1.775c1.861-1.327-1.739 4.038 7.244-1.333 7.474-4.784 7.3-10.13 8.208-11.044a6.854 6.854 0 012.888-1.888c-.833 3.185-3.256 8.866-2.15 9.77 2.331 1.675 4.681-1.647 6.511-3.31 4.362-3.575 6.867-1.312 14.645-6.028a1.9 1.9 0 011.231.884c-1.71 2.9-7.515 4.39-9.431 7.055-1.113 1.549-1.589 3.935-.175 4.952l.158.115c3.8 1.657 12.383-3.824 13.932-6.952a3.614 3.614 0 011.37 2.2c-2.139 3.2-8.414 7.27-4.114 10.678 2.6 2.071 6.791-3.007 6.837-5.632a4.51 4.51 0 011.078 2.122c.14 7.029-5.071 10.063-.858 14.17 2.333 2.26 4.834-3.328 5.01-4.8l1.111 2.609c1.887 5.253-7.322 14.842-5.078 17.939 1.121 1.558 6.365-3.695 6.848-4.969a7.635 7.635 0 01.233 3.175c-.724 2.533-16 18.025-5.683 16.01l-1.34 2.212c-4.772 3.406-8.819-1.58-16 3.629-1.765 1.55 1.9.888 3.436 1.74a5.414 5.414 0 01-1.584 1.8c-1.807.87-7.723 3.754-12.708.121 8.545-7.982 21.762-10.013 23.157-22.209-.778 2.754-2.688 5.4-6.285 7.681-6 3.807-13.759 7.154-18.986 11.946m15.468-43.7a2.966 2.966 0 00.435 2.6c1.762 1.767 6.2 6.544 8.448 12.083-1.13-3.855-4-11.171-7.167-13.451z" fill-rule="evenodd"/><path data-name="Path 4" d="M26.105 58.6c-1.621-.485-3.908-2.226-4.3-3.113l1.74.416.728.124a16.706 16.706 0 005.705-.152c1.159-.315 3.853-1 5.26-.76l.937.16c.886.151 2.253 1 2.348 1.613h-.007a.728.728 0 01.042.066l-.562.041-.849.353-.457.225a10.665 10.665 0 00-3.046 2.372 10.134 10.134 0 01-2.518 2.52l-.587.289a2.586 2.586 0 01-2.047.077l1.156-.462a6.034 6.034 0 002.416-2.61 8.351 8.351 0 011.211-2.012 19.6 19.6 0 00-5.7 3.781c-1.752 1.694-4.038 4.3-7.357 4.806-2.8.424-8.358-1.313-9.66-2.634l3.087-.269 1.259-.191a28.035 28.035 0 009.156-3.317 57.864 57.864 0 012.043-1.319" fill-rule="evenodd"/><path data-name="Path 5" d="M23.716 53.4q.621-2.03 1.429-4 .795-1.93 1.767-3.781.957-1.821 2.082-3.55 1.111-1.708 2.376-3.306a44.7 44.7 0 0111.981-10.545 45.03 45.03 0 017.164-3.5c1.245-.475 2.514-.9 3.8-1.259s2.594-.67 3.911-.918 2.658-.436 4-.563 2.71-.195 4.068-.2q2.06-.006 4.115.181c1.387.126 2.768.317 4.137.572q2.092.388 4.138.974 2.063.59 4.065 1.373 1.962.768 3.849 1.721 1.853.936 3.615 2.045 1.741 1.092 3.373 2.346 1.615 1.243 3.115 2.629t2.841 2.881q1.35 1.5 2.563 3.112a44.911 44.911 0 017.174 14.3q.569 1.941.963 3.927t.6 4.022a44.38 44.38 0 01.085 8.233q-.174 2.1-.544 4.168c-.251 1.4-.57 2.795-.953 4.167s-.835 2.742-1.349 4.082c-.5 1.312-1.07 2.6-1.7 3.863q-.925 1.864-2.024 3.631-1.082 1.749-2.325 3.39-1.229 1.624-2.606 3.132t-2.861 2.863a44.859 44.859 0 01-21.277 10.827q-1.992.407-4.016.629t-4.089.258a43.938 43.938 0 01-4.138-.124c-1.4-.1-2.788-.278-4.166-.517q-2.106-.363-4.169-.924-1.732-.471-3.421-1.077-1.581-.569-3.115-1.25-1.514-.678-2.973-1.462a44.69 44.69 0 01-18.359-18.633 44.585 44.585 0 01-5.026-18.37c.521-.028 1.042-.053 1.561-.081.059 1.106.157 2.212.3 3.31s.325 2.18.552 3.259a43.051 43.051 0 001.83 6.3 43.355 43.355 0 006.362 11.384 43.016 43.016 0 009.575 9.036q1.384.954 2.84 1.793 1.472.849 3.007 1.581 1.553.739 3.163 1.353 1.634.624 3.314 1.115a43.962 43.962 0 004.29 1.023 43.218 43.218 0 004.288.575q2.127.176 4.26.139c1.4-.024 2.81-.117 4.206-.281s2.761-.389 4.124-.683 2.7-.652 4.016-1.074 2.611-.905 3.881-1.45 2.51-1.149 3.717-1.811 2.389-1.382 3.529-2.156 2.25-1.606 3.312-2.487 2.092-1.822 3.07-2.8 1.917-2.026 2.8-3.1 1.724-2.221 2.5-3.392 1.514-2.408 2.178-3.663q1.011-1.914 1.829-3.922a43.786 43.786 0 002.474-8.459 42.914 42.914 0 00.574-4.289q.177-2.124.14-4.26c-.023-1.4-.118-2.809-.281-4.2s-.389-2.761-.683-4.124-.652-2.7-1.074-4.016a43.459 43.459 0 00-3.261-7.599 43.234 43.234 0 00-4.643-6.84 42.947 42.947 0 00-5.9-5.869c-1.075-.882-2.221-1.724-3.392-2.5s-2.407-1.514-3.664-2.178a42.928 42.928 0 00-3.921-1.828 43.842 43.842 0 00-8.428-2.469 42.862 42.862 0 00-4.26-.584q-2.11-.179-4.231-.147a43.165 43.165 0 00-8.276.933c-1.357.288-2.679.638-3.992 1.052s-2.6.887-3.858 1.422a43.34 43.34 0 00-10.516 6.346c-1.057.867-2.088 1.792-3.065 2.76s-1.919 1.994-2.8 3.058-1.729 2.188-2.511 3.343-1.524 2.372-2.2 3.612a42.838 42.838 0 00-1.852 3.867 35.445 35.445 0 00-1.484 4.111z"/><path data-name="Path 6" d="M66.449 132.9A66.448 66.448 0 100 66.447 66.457 66.457 0 0066.449 132.9m0-1.56a64.888 64.888 0 1164.888-64.888 64.9 64.9 0 01-64.888 64.888" fill-rule="evenodd"/></g></g></g></svg>