<svg xmlns="http://www.w3.org/2000/svg" width="22.75" height="20" viewBox="0 0 22.75 20"><defs><clipPath id="a"><path data-name="Rectangle 31" fill="#fff" d="M0 0h22.75v20H0z"/></clipPath></defs><g data-name="Group 57" clip-path="url(#a)" fill="#fff"><path data-name="Path 61" d="M.666 16h17.422a.668.668 0 00.427-.154c.167-.14 3.985-3.424 4.217-10.512H4.021C3.789 11.768.274 14.793.237 14.823a.667.667 0 00.428 1.178"/><path data-name="Path 62" d="M22.087 1.333h-3.333V.667a.667.667 0 00-1.333 0v.667h-3.378V.667a.667.667 0 00-1.333 0v.667H9.376V.667a.667.667 0 00-1.333 0v.667H4.71A.66.66 0 004.043 2v2h18.711V2a.66.66 0 00-.667-.667"/><path data-name="Path 63" d="M19.371 16.868a2.006 2.006 0 01-1.283.465H4.043v2A.666.666 0 004.71 20h17.378a.666.666 0 00.667-.667V11.86a13.213 13.213 0 01-3.383 5.008"/></g></svg>