<svg xmlns="http://www.w3.org/2000/svg" width="56.04" height="25.96" viewBox="0 0 56.04 25.96"><g fill="#c8141e"><path data-name="Path 121" d="M15.192 8.41l-.4-4.91a3.674 3.674 0 00-3.58-3.5h-4.82a3.674 3.674 0 00-3.58 3.5l-.4 4.91c1.242-.002 12.78 0 12.78 0z"/><path data-name="Path 122" d="M34.402 8.41l-.4-4.91a3.674 3.674 0 00-3.58-3.5h-4.82a3.674 3.674 0 00-3.58 3.5l-.4 4.91h12.78z"/><path data-name="Path 123" d="M3.292 16.72h1.62c.011.7-.008 2.416 0 3.1 0 0 6.517.008 7.78 0 .008-.677-.006-2.4 0-3.1h1.63a3 3 0 003-3v-1.31a2.006 2.006 0 00-1.97-2h-13.1a2 2 0 00-1.96 2v1.31a3 3 0 003 3z"/><path data-name="Path 124" d="M22.492 16.72h1.63v3.1s6.517.008 7.78 0c.008-.677-.006-2.4 0-3.1h1.63a3 3 0 003-3v-1.31a2.006 2.006 0 00-1.97-2h-13.1a2.006 2.006 0 00-1.97 2v1.31a3 3 0 003 3z"/><path data-name="Path 125" d="M41.702 16.72h1.63v3.1s6.517.008 7.78 0c.008-.677-.006-2.4 0-3.1h1.62a3 3 0 003-3v-1.31a2 2 0 00-1.96-2h-13.1a2.006 2.006 0 00-1.97 2v1.31a3 3 0 003 3z"/><path data-name="Path 126" d="M53.612 8.41l-.4-4.91a3.674 3.674 0 00-3.58-3.5h-4.82a3.674 3.674 0 00-3.58 3.5l-.4 4.91h12.78z"/><path data-name="Path 127" d="M55.832 21.82H.192c-.327.648-.125 2.432-.18 3.14a1 1 0 001 1h54a1 1 0 001-1 12.224 12.224 0 00-.18-3.14z"/></g></svg>