<svg xmlns="http://www.w3.org/2000/svg" width="82.7" height="18.68" viewBox="0 0 82.7 18.68"><defs><clipPath id="a"><path data-name="Rectangle 66" fill="#adadad" d="M0 0h82.7v18.68H0z"/></clipPath></defs><g data-name="Group 267"><g data-name="Group 266" transform="translate(0 .001)" clip-path="url(#a)" fill="#adadad"><path data-name="Path 92" d="M37.958 11.333c0 .441-.312.625-1.25.625a13.875 13.875 0 01-3.879-.57l-.258 2.224a11.626 11.626 0 004.283.754c2.334 0 4.393-.882 4.393-3.144 0-4.08-5.477-3.015-5.477-4.191 0-.367.165-.625 1.25-.625a13.606 13.606 0 013.511.57l.257-2.224a10.38 10.38 0 00-3.91-.754c-2.334 0-4.393.754-4.393 3.144 0 4.08 5.478 3.014 5.478 4.191m4.927 6.232h3.309v-3.824a5.43 5.43 0 002.665.625c2.243 0 4.651-1.691 4.651-5.184s-2.206-5.184-4.467-5.184a4.383 4.383 0 00-2.849 1.085l-.184-.809h-3.131zm3.309-10.4a3.162 3.162 0 011.618-.478 2.184 2.184 0 012.206 2.5 2.183 2.183 0 01-2.206 2.5 3.165 3.165 0 01-1.618-.478zm8.5 2.022c0 3.015 2.114 5.184 5.5 5.184s5.5-2.169 5.5-5.184-2.114-5.184-5.5-5.184-5.5 2.169-5.5 5.184m3.492 0c0-1.525.846-2.61 2-2.61s2 1.085 2 2.61-.845 2.61-2 2.61-2-1.085-2-2.61m16.587-5.152a4.053 4.053 0 00-3.952 1.691l-.248-1.452h-3.12v9.816h3.308V8.539a3.483 3.483 0 013.75-1.452zm5.536.239V1.921h-2.941l-.368 2.353-1.471.184v2.206h1.471v4.485c0 3.437 3.07 3.658 5.7 2.757l-.258-2.334c-1.507.257-2.132.036-2.132-.791V6.664h2.206v-2.39z"/><path data-name="Path 93" d="M6.961.244A92.032 92.032 0 0112.415 0v2.4c-.767.028-1.623.079-2.426.164-2.826.3-3.353.915-3.695 3.629a26.843 26.843 0 000 6.294c.342 2.714.869 3.327 3.695 3.629.8.086 1.66.138 2.426.165v2.4a91.224 91.224 0 01-5.454-.245C1.892 18.025.946 17.2.331 13.561a27.092 27.092 0 010-8.449C.946 1.473 1.892.65 6.961.244"/><path data-name="Path 94" d="M27.605 9.337a26.786 26.786 0 01-.331 4.224c-.615 3.639-1.56 4.464-6.63 4.869a89.55 89.55 0 01-5.453.245v-2.4a35.494 35.494 0 002.425-.165c2.826-.3 3.354-.915 3.695-3.629a26.787 26.787 0 000-6.294c-.341-2.715-.869-3.328-3.695-3.63a35.44 35.44 0 00-2.425-.164V0c1.617.026 3.611.1 5.453.244 5.069.406 6.015 1.229 6.63 4.869a26.786 26.786 0 01.331 4.224"/></g></g></svg>