<svg xmlns="http://www.w3.org/2000/svg" width="24.29" height="17" viewBox="0 0 24.29 17"><defs><clipPath id="a"><path data-name="Rectangle 28" fill="#5d5d5d" d="M0 0h24.29v17H0z"/></clipPath></defs><g data-name="Group 48" clip-path="url(#a)"><path data-name="Path 57" d="M24.107 3.301A3.124 3.124 0 0020.992.185S14.358.001 12.146.001 3.3.185 3.3.185A3.124 3.124 0 00.185 3.301S0 7.201 0 8.501s.185 5.2.185 5.2A3.124 3.124 0 003.3 16.815s6.634.186 8.846.186 8.846-.185 8.846-.185a3.124 3.124 0 003.115-3.115s.185-3.895.185-5.2-.185-5.2-.185-5.2m-14.287 9v-7.6l6.137 3.8z" fill="#5d5d5d"/></g></svg>