<svg xmlns="http://www.w3.org/2000/svg" width="20" height="20" viewBox="0 0 20 20"><defs><clipPath id="a"><path data-name="Rectangle 29" fill="#5d5d5d" d="M0 0h20v20H0z"/></clipPath></defs><g data-name="Group 50" clip-path="url(#a)" fill="#5d5d5d"><path data-name="Path 58" d="M16.869 0H3.131A3.131 3.131 0 000 3.131v13.738A3.131 3.131 0 003.131 20h13.738A3.131 3.131 0 0020 16.869V3.131A3.131 3.131 0 0016.869 0m-4.714 15.366l-.208-.3-2.685-3.9-3.614 4.2h-.892l4.108-4.781-3.342-4.856-.754-1.095h3.089l.208.3 2.514 3.652 2.639-3.071.763-.883h.891l-3.9 4.532 3.514 5.105.753 1.095z"/><path data-name="Path 59" d="M10.108 9.137l-2.618-3.8H6.097l3.237 4.7.4.577 2.79 4.054h1.393l-3.409-4.953z"/></g></svg>