<svg xmlns="http://www.w3.org/2000/svg" width="27.31" height="26.59" viewBox="0 0 27.31 26.59"><defs><clipPath id="a"><path data-name="Rectangle 15" fill="#c1141c" d="M0 0h27.31v26.59H0z"/></clipPath></defs><g data-name="Group 22" clip-path="url(#a)" fill="#c1141c"><path data-name="Path 15" d="M3.357 24.277l-.008.005v.011z"/><path data-name="Path 16" d="M.076 25.806a.654.654 0 00.053.7c.055.073.11.116.2.063a.106.106 0 00.024-.166 2.216 2.216 0 01-.273-.6"/><path data-name="Path 17" d="M24.166 3.893c.072.044.055.233.186.143a.358.358 0 00.1-.256.335.335 0 00-.412-.281c-.076.019-.09.078-.079.177a1.027 1.027 0 00.208.218"/><path data-name="Path 18" d="M22.707 2.595l-.016.007v.008h.017v-.017"/><path data-name="Path 19" d="M22.863 2.145c-.209.19-.213.2-.156.45l.268-.124c-.137-.064-.053-.222-.112-.326"/><path data-name="Path 20" d="M3.245 22.906c.028.017.091 0 .126-.027a.1.1 0 00.033-.155.763.763 0 00-.133-.108c-.013.042-.02.087-.035.129-.021.057-.056.121.009.161"/><path data-name="Path 21" d="M3.27 22.616l-.011-.006.011.008"/><path data-name="Path 22" d="M2.272 25.396a.118.118 0 00-.117.113.068.068 0 00.1.05.184.184 0 00.093-.089c.017-.052-.028-.081-.078-.074"/><path data-name="Path 23" d="M23.651 2.826c-.043-.066-.077-.185-.2-.111-.033.021-.048.072-.081.125a1.034 1.034 0 00.219.085.07.07 0 00.061-.1"/><path data-name="Path 24" d="M3.271 22.614H3.26h.009"/><path data-name="Path 25" d="M3.27 22.61c.187.026.3-.033.266-.243-.17-.013-.208.128-.266.243"/><path data-name="Path 26" d="M3.539 22.367h.015-.007.008c0-.006 0-.011.007-.016l-.023.008v.008"/><path data-name="Path 27" d="M3.42 21.608a.088.088 0 00-.056-.062c-.094-.017-.141.035-.148.125a.254.254 0 00.015.078.4.4 0 00.081-.018c.056-.022.114-.051.109-.123"/><path data-name="Path 28" d="M23.11 2.683a.089.089 0 00.062-.053.126.126 0 00-.1-.14.363.363 0 00-.087-.012.284.284 0 00-.023.118.113.113 0 00.143.088"/><path data-name="Path 29" d="M22.989 2.476v-.013l-.019.009h.014"/><path data-name="Path 30" d="M3.358 24.277l-.01.017.022-.005-.012-.012"/><path data-name="Path 31" d="M3.423 24.344c.039.058.082.092.149.043a.05.05 0 00.012-.043c-.019-.079-.072-.094-.144-.072-.023.007-.047.012-.07.017a.318.318 0 01.053.055"/><path data-name="Path 32" d="M3.222 21.756h.011v-.01h-.008"/><path data-name="Path 33" d="M3.015 21.772a.071.071 0 00.058.108c.089.012.156-.017.148-.125-.072-.024-.15-.061-.206.017"/><path data-name="Path 34" d="M12.496 18.314a.082.082 0 00-.064.108.1.1 0 00.063.06.065.065 0 00.085-.074.091.091 0 00-.084-.094"/><path data-name="Path 35" d="M25.767 24.58a.142.142 0 01-.121-.133c0-.125.089-.083.166-.093.214-.026.157-.129.064-.252-.2-.267-.2-.27.058-.517-.278-.144-.592-.236-.755-.535-.277-.041-.356-.3-.507-.478-.106-.121.1-.2.112-.332a.644.644 0 00-.09-.371c-.079-.142-.173-.273-.1-.451.041-.1-.04-.181-.091-.264a3.947 3.947 0 00-.823-.962c-.193.043-.191.289-.409.294a2.133 2.133 0 00-.192-.493.439.439 0 01-.014-.6.435.435 0 00-.032-.506c-.3-.426-.332-.982-.7-1.373a.231.231 0 01-.059-.177c.064-.277-.11-.464-.242-.661-.431-.644-.978-1.2-1.361-1.884a1.521 1.521 0 00-.3-.315 8.889 8.889 0 01-.928-.926c-.055-.071-.136-.123-.1-.25.1-.308.08-.4-.138-.476a.718.718 0 01-.481-.558 1.408 1.408 0 00-.133-.337 4.455 4.455 0 00.512-.794c.079-.162.3-.242.326-.463a.069.069 0 01.106-.055c.255.143.3-.1.382-.224.222-.358.489-.683.724-1.028a7.2 7.2 0 00.894-1.195 1.676 1.676 0 01.428-.656 1.848 1.848 0 00.512-.686 11.842 11.842 0 01.737-1.316 2.667 2.667 0 00.352-1c.016-.076.029-.195-.012-.232-.285-.257.032-.639-.2-.9.13-.223-.056-.263-.189-.352-.175-.116-.447-.132-.468-.419a.6.6 0 00-.6.356c-.041-.05-.075-.072-.078-.1-.033-.25.182-.481.056-.746-.025-.052.055-.11.132-.1s.166.092.193-.036-.1-.1-.157-.093c-.248.047-.379-.125-.54-.257-.118-.1-.035-.256-.14-.351-.172.1-.212.311-.4.42a1.141 1.141 0 00-.15-.993c-.1-.236-.311-.426-.288-.714-.177.061-.176.344-.411.228-.266-.131-.387.042-.484.244-.056.116-.084.247-.146.358-.1.173-.141.3.068.447.234.161.078.382.012.572-.058.168-.162.292-.367.2-.126-.056-.183.023-.23.109-.231.426-.477.846-.68 1.285a.949.949 0 01-.432.5.984.984 0 00-.426.386c-.452.769-.955 1.513-1.353 2.31a8.932 8.932 0 01-1.235 1.788l-.6-.572a7.8 7.8 0 00-1.513-1.26c-.158-.088-.225-.317-.444-.351a.069.069 0 01-.049-.109c.157-.246-.081-.308-.2-.394-.344-.242-.655-.526-.986-.78A7.2 7.2 0 0010.104 4a1.673 1.673 0 01-.631-.464 1.85 1.85 0 00-.657-.55 11.866 11.866 0 01-1.272-.809 2.667 2.667 0 00-.977-.407c-.075-.02-.193-.04-.232 0-.272.27-.636-.068-.909.15-.215-.142-.266.041-.362.169-.125.168-.157.439-.444.444a.6.6 0 00.322.618c-.052.038-.076.071-.1.073-.252.019-.47-.209-.741-.1-.053.022-.107-.061-.092-.137s.1-.161-.026-.2-.109.091-.1.152c.033.251-.146.371-.287.525-.1.112-.257.02-.358.121.086.177.3.229.4.423a1.141 1.141 0 00-1 .095c-.242.092-.443.287-.729.248.051.18.334.195.205.423-.146.258.02.388.216.5.113.063.242.1.349.166.168.108.294.158.45-.044.173-.224.385-.056.571.02.164.067.282.178.179.377-.064.123.012.184.1.236.413.255.818.523 1.245.75a.95.95 0 01.475.459.982.982 0 00.362.446c.743.494 1.458 1.038 2.231 1.48a12.775 12.775 0 012.6 2.206 10.121 10.121 0 00.721.785l.055.048a1.6 1.6 0 01-.529.544 1.647 1.647 0 00-.577.644 2.5 2.5 0 01-.888.948 1.175 1.175 0 00-.56.589 1.579 1.579 0 01-.57.762 1.288 1.288 0 00-.554.72 2.568 2.568 0 01-.681 1.2A17.538 17.538 0 015.69 19.6a3.293 3.293 0 00-.392.5q-.464.623-.947 1.231a3.861 3.861 0 00-.777 1.022c.084-.028.169-.054.253-.084a.213.213 0 01.261.069c.085.121 0 .221-.089.29-.2.16-.381.344-.571.515-.134.121-.143.3-.308.414a4.815 4.815 0 01-1.057.656.64.64 0 00-.318 1.044.43.43 0 00.123-.3.142.142 0 01.126-.129c.125-.008.088.085.1.161.038.213.138.15.255.05.255-.219.258-.215.519.029a1.523 1.523 0 01.492-.784c.025-.278.284-.372.449-.533.115-.113.209.091.338.093a.641.641 0 00.366-.11c.137-.087.263-.188.445-.129.107.035.178-.05.258-.105a3.94 3.94 0 00.914-.875c-.054-.19-.3-.175-.317-.392a2.14 2.14 0 00.482-.219.439.439 0 01.6-.048.435.435 0 00.5-.06c.409-.318.962-.386 1.332-.774a.231.231 0 01.173-.069c.28.048.457-.136.647-.279.619-.466 1.147-1.043 1.805-1.463a1.527 1.527 0 00.3-.317 8.875 8.875 0 01.873-.978c.068-.059.115-.143.245-.11.313.079.4.057.467-.165a.718.718 0 01.531-.511 1.071 1.071 0 00.713-.608.762.762 0 01.278-.329 2.15 2.15 0 00.545-.545 2.489 2.489 0 01.311.439 1.175 1.175 0 00.556.592 1.58 1.58 0 01.729.612 1.288 1.288 0 00.688.593 2.568 2.568 0 011.161.747 17.55 17.55 0 011.9 1.727 3.267 3.267 0 00.473.419q.6.5 1.177 1.014a3.853 3.853 0 00.977.833c-.023-.086-.044-.172-.069-.257a.213.213 0 01.083-.257c.125-.078.221.014.285.1.149.21.322.4.483.6.113.141.292.16.4.33a4.809 4.809 0 01.6 1.092.64.64 0 001.025.375.43.43 0 00-.294-.14m-21.3-2.5a.167.167 0 01-.128.035c-.076-.017-.081-.092-.079-.155.013-.3.2-.434.649-.436a1.589 1.589 0 01-.442.557m18.448-.062c-.3-.029-.423-.22-.4-.672a1.592 1.592 0 01.531.472.166.166 0 01.028.13c-.021.075-.1.076-.159.07"/><path data-name="Path 36" d="M25.172 23.043v.008h.011z"/><path data-name="Path 37" d="M27.293 26.199a.106.106 0 00-.164-.033 2.214 2.214 0 01-.612.239.655.655 0 00.7-.014c.076-.051.122-.1.074-.191"/><path data-name="Path 38" d="M5.747 1.328a1.033 1.033 0 00.229-.2c.048-.07.236-.042.153-.178a.357.357 0 00-.25-.112.335.335 0 00-.3.4c.015.076.073.095.172.089"/><path data-name="Path 39" d="M4.6 2.518l.006.016h.009v-.017h-.017"/><path data-name="Path 40" d="M4.159 2.337c.178.219.185.224.441.181l-.11-.275c-.072.133-.225.04-.332.094"/><path data-name="Path 41" d="M23.797 23.08c.018-.027 0-.091-.02-.127a.1.1 0 00-.153-.041.76.76 0 00-.115.127c.042.015.086.024.126.042.056.024.118.063.161 0"/><path data-name="Path 42" d="M23.508 23.038l-.007.011.008-.01"/><path data-name="Path 43" d="M26.307 24.115c-.051-.02-.083.023-.078.074a.118.118 0 00.107.123.068.068 0 00.056-.1.187.187 0 00-.084-.1"/><path data-name="Path 44" d="M4.882 1.865a1.039 1.039 0 00.1-.214.07.07 0 00-.1-.067c-.069.04-.189.067-.121.192.019.035.069.052.121.088"/><path data-name="Path 45" d="M23.276 22.758v-.015.007-.008l-.016-.008.006.024h.008"/><path data-name="Path 46" d="M23.507 23.037v.011l.005-.009"/><path data-name="Path 47" d="M23.5 23.035c.037-.185-.016-.3-.227-.28-.022.169.116.214.227.28"/><path data-name="Path 48" d="M22.51 22.833a.089.089 0 00-.065.053c-.022.093.027.143.116.155a.258.258 0 00.079-.01.426.426 0 00-.013-.082c-.019-.057-.045-.117-.117-.116"/><path data-name="Path 49" d="M22.653 23.027h-.01v.008-.005.005-.011z"/><path data-name="Path 50" d="M4.709 2.12a.089.089 0 00-.05-.065.126.126 0 00-.145.087.355.355 0 00-.022.09.279.279 0 00.117.029.113.113 0 00.1-.138"/><path data-name="Path 51" d="M4.497 2.229h-.013l.008.02a.093.093 0 00.005-.008v-.012"/><path data-name="Path 52" d="M25.293 22.834a.049.049 0 00-.042-.015c-.081.015-.1.067-.08.14.006.024.009.048.013.072a.3.3 0 01.058-.05c.06-.036.1-.077.051-.146"/><path data-name="Path 53" d="M25.172 23.042l.016.011v-.023l-.012.012"/><path data-name="Path 54" d="M22.647 23.039c-.028.071-.07.146.005.207a.071.071 0 00.111-.052c.016-.088-.008-.157-.116-.155"/><path data-name="Path 55" d="M19.727 13.586c.015.053.051.084.1.069a.1.1 0 00.063-.059.064.064 0 00-.069-.089.091.091 0 00-.1.079"/></g></svg>