<svg data-name="Group 154" xmlns="http://www.w3.org/2000/svg" width="19.72" height="18.77" viewBox="0 0 19.72 18.77"><defs><clipPath id="a"><path data-name="Rectangle 49" fill="#fff" d="M0 0h19.72v18.77H0z"/></clipPath></defs><g data-name="Group 153" clip-path="url(#a)" fill="#fff"><path data-name="Path 83" d="M12.566 16.586c0-.021.009-.043.012-.065v-.006c0-.026-.009-.051-.015-.076a1.11 1.11 0 00-.545-.72 3.9 3.9 0 00-2.106-.477 4.1 4.1 0 00-2.169.474.96.96 0 00-.579.808v.653a1.133 1.133 0 00.6 1.142 4.169 4.169 0 001.947.452h.223a5.176 5.176 0 001.075-.1 3.359 3.359 0 001.12-.433.952.952 0 00.452-1.059z"/><path data-name="Path 84" d="M19.317 13.776a1.37 1.37 0 00-.973-.4h-4.692a.035.035 0 01-.032-.019l-2.3-3.982-1.094 1.893 2.573 4.45a.914.914 0 00.4.379.31.31 0 00.14.032h5.007a1.378 1.378 0 001.377-1.377 1.351 1.351 0 00-.4-.97"/><path data-name="Path 85" d="M14.438 2.699l.734-1.271a.9.9 0 00.134-.48.948.948 0 00-1.769-.475l-.823 1.425L6.1 13.353a.035.035 0 01-.032.019H1.377a1.4 1.4 0 00-.977.4 1.379 1.379 0 00.977 2.351h5.006a.311.311 0 00.14-.032.9.9 0 00.394-.375z"/><path data-name="Path 86" d="M5.357 2.833l.274.474L8.401 8.1l1.094-1.9-2.488-4.3L6.18.473a.948.948 0 10-1.641.948z"/></g></svg>